<svg width="20" height="20" viewBox="0 0 20 20" fill="none" xmlns="http://www.w3.org/2000/svg">
<path fill-rule="evenodd" clip-rule="evenodd" d="M6.68264 6.68259C7.52613 5.83909 8.70905 5.30419 10.0051 5.30419C11.3012 5.30419 12.4739 5.83909 13.3174 6.68259C14.1711 7.53637 14.6958 8.70903 14.6958 10.0051C14.6958 11.3012 14.1711 12.4739 13.3174 13.3174C12.4739 14.1712 11.3012 14.6958 10.0051 14.6958C8.70905 14.6958 7.52613 14.1712 6.68264 13.3174C5.83915 12.4739 5.30429 11.3012 5.30429 10.0051C5.30429 8.70903 5.83915 7.53637 6.68264 6.68259ZM10.0051 3C8.07129 3 6.31236 3.78178 5.04712 5.04702C3.78189 6.31227 3 8.07127 3 10.0051C3 11.9287 3.78189 13.6877 5.04712 14.953C6.31236 16.2182 8.07129 17 10.0051 17C11.484 17 12.8656 16.5379 14.0003 15.7494L17.2509 19L19 17.2399L15.7539 13.9938C16.5397 12.8603 17 11.4812 17 10.0051C17 8.07127 16.2182 6.31227 14.953 5.04702C13.6878 3.78178 11.9287 3 10.0051 3Z" fill="#68788F"/>
</svg>
