<svg width="108" height="124" viewBox="0 0 108 124" fill="none" xmlns="http://www.w3.org/2000/svg">
<path fill-rule="evenodd" clip-rule="evenodd" d="M53.9504 34.3594L65.9304 41.2794L77.9105 48.1993V62.0394V75.8694L65.9304 82.7894L53.9504 89.7094L41.9604 82.7894L29.9805 75.8694V62.0394V48.1993L41.9604 41.2794L53.9504 34.3594Z" fill="#00CCFF" stroke="white" stroke-miterlimit="22.9256" stroke-linecap="round" stroke-linejoin="round"/>
<path d="M77.9148 48.1867L53.9492 34.3359L29.9836 48.1867L53.9492 62.0375L77.9148 48.1867Z" fill="#5CDEFF" stroke="white" stroke-width="0.32093" stroke-miterlimit="22.9256" stroke-linecap="round" stroke-linejoin="round"/>
<path d="M77.9148 75.886L53.9492 62.0352L29.9836 75.886L53.9492 89.7368L77.9148 75.886Z" fill="#00CCFF" stroke="white" stroke-width="0.32093" stroke-miterlimit="22.9256" stroke-linecap="round" stroke-linejoin="round"/>
<path fill-rule="evenodd" clip-rule="evenodd" d="M53.9504 62.0392V89.7092L29.9805 75.8693V48.1992L53.9504 62.0392Z" fill="#00CCFF" stroke="white" stroke-miterlimit="22.9256" stroke-linecap="round" stroke-linejoin="round"/>
<path fill-rule="evenodd" clip-rule="evenodd" d="M53.9492 62.0392V89.7092L77.9093 75.8693V48.1992L53.9492 62.0392Z" fill="#00A7D1" stroke="white" stroke-miterlimit="22.9256" stroke-linecap="round" stroke-linejoin="round"/>
<path fill-rule="evenodd" clip-rule="evenodd" d="M82.8995 51.0898L94.8795 58.0098L106.87 64.9299V78.7698V92.5999L94.8795 99.5198L82.8995 106.44L70.9196 99.5198L58.9395 92.5999V78.7698V64.9299L70.9196 58.0098L82.8995 51.0898Z" fill="#00CCFF" stroke="white" stroke-miterlimit="22.9256" stroke-linecap="round" stroke-linejoin="round"/>
<path d="M106.866 64.9153L82.9004 51.0645L58.9348 64.9153L82.9004 78.7661L106.866 64.9153Z" fill="#5CDEFF" stroke="white" stroke-width="0.32093" stroke-miterlimit="22.9256" stroke-linecap="round" stroke-linejoin="round"/>
<path d="M106.866 92.6164L82.9004 78.7656L58.9348 92.6164L82.9004 106.467L106.866 92.6164Z" fill="#00CCFF" stroke="white" stroke-width="0.32093" stroke-miterlimit="22.9256" stroke-linecap="round" stroke-linejoin="round"/>
<path fill-rule="evenodd" clip-rule="evenodd" d="M82.8998 78.7697V106.44L58.9297 92.5997V64.9297L82.8998 78.7697Z" fill="#00CCFF" stroke="white" stroke-miterlimit="22.9256" stroke-linecap="round" stroke-linejoin="round"/>
<path fill-rule="evenodd" clip-rule="evenodd" d="M82.9004 78.7697V106.44L106.87 92.5997V64.9297L82.9004 78.7697Z" fill="#00A7D1" stroke="white" stroke-miterlimit="22.9256" stroke-linecap="round" stroke-linejoin="round"/>
<path fill-rule="evenodd" clip-rule="evenodd" d="M24.9697 51.2402L36.9497 58.1502L48.9397 65.0702V78.9102V92.7502L36.9497 99.6602L24.9697 106.58L12.9897 99.6602L1.00977 92.7502V78.9102V65.0702L12.9897 58.1502L24.9697 51.2402Z" fill="#00CCFF" stroke="white" stroke-miterlimit="22.9256" stroke-linecap="round" stroke-linejoin="round"/>
<path d="M48.9363 65.0578L24.9707 51.207L1.00511 65.0578L24.9707 78.9086L48.9363 65.0578Z" fill="#5CDEFF" stroke="white" stroke-width="0.32093" stroke-miterlimit="22.9256" stroke-linecap="round" stroke-linejoin="round"/>
<path d="M48.9363 92.759L24.9707 78.9082L1.00511 92.759L24.9707 106.61L48.9363 92.759Z" fill="#00CCFF" stroke="white" stroke-width="0.32093" stroke-miterlimit="22.9256" stroke-linecap="round" stroke-linejoin="round"/>
<path fill-rule="evenodd" clip-rule="evenodd" d="M24.97 78.9103V106.58L1 92.7504V65.0703L24.97 78.9103Z" fill="#00CCFF" stroke="white" stroke-miterlimit="22.9256" stroke-linecap="round" stroke-linejoin="round"/>
<path fill-rule="evenodd" clip-rule="evenodd" d="M24.9707 78.9103V106.58L48.9407 92.7504V65.0703L24.9707 78.9103Z" fill="#00A7D1" stroke="white" stroke-miterlimit="22.9256" stroke-linecap="round" stroke-linejoin="round"/>
<path fill-rule="evenodd" clip-rule="evenodd" d="M53.9309 67.9707L65.911 74.8807L77.891 81.8007V95.6407V109.471L65.911 116.391L53.9309 123.311L41.9409 116.391L29.9609 109.471V95.6407V81.8007L41.9409 74.8807L53.9309 67.9707Z" fill="#00CCFF" stroke="white" stroke-miterlimit="22.9256" stroke-linecap="round" stroke-linejoin="round"/>
<path d="M77.8953 81.7883L53.9297 67.9375L29.9641 81.7883L53.9297 95.6391L77.8953 81.7883Z" fill="#5CDEFF" stroke="white" stroke-width="0.32093" stroke-miterlimit="22.9256" stroke-linecap="round" stroke-linejoin="round"/>
<path d="M77.8953 109.489L53.9297 95.6387L29.9641 109.489L53.9297 123.34L77.8953 109.489Z" fill="#00CCFF" stroke="white" stroke-width="0.32093" stroke-miterlimit="22.9256" stroke-linecap="round" stroke-linejoin="round"/>
<path fill-rule="evenodd" clip-rule="evenodd" d="M53.9309 95.6407V123.311L29.9609 109.471V81.8008L53.9309 95.6407Z" fill="#00CCFF" stroke="white" stroke-miterlimit="22.9256" stroke-linecap="round" stroke-linejoin="round"/>
<path fill-rule="evenodd" clip-rule="evenodd" d="M53.9297 95.6407V123.311L77.8898 109.471V81.8008L53.9297 95.6407Z" fill="#00A7D1" stroke="white" stroke-miterlimit="22.9256" stroke-linecap="round" stroke-linejoin="round"/>
<path fill-rule="evenodd" clip-rule="evenodd" d="M53.9504 1L65.9304 7.92001L77.9105 14.84V28.67V42.51L65.9304 49.43L53.9504 56.35L41.9604 49.43L29.9805 42.51V28.67V14.84L41.9604 7.92001L53.9504 1Z" fill="#00CCFF" stroke="white" stroke-miterlimit="22.9256" stroke-linecap="round" stroke-linejoin="round"/>
<path fill-rule="evenodd" clip-rule="evenodd" d="M53.9504 28.6699V56.3499L29.9805 42.5098V14.8398L53.9504 28.6699Z" fill="#00CCFF" stroke="white" stroke-miterlimit="22.9256" stroke-linecap="round" stroke-linejoin="round"/>
<path fill-rule="evenodd" clip-rule="evenodd" d="M53.9492 28.6699V56.3499L77.9093 42.5098V14.8398L53.9492 28.6699Z" fill="#00A7D1" stroke="white" stroke-miterlimit="22.9256" stroke-linecap="round" stroke-linejoin="round"/>
<path d="M106.866 31.55L82.9004 17.6992L58.9348 31.55L82.9004 45.4008L106.866 31.55Z" fill="#5CDEFF" stroke="white" stroke-width="0.32093" stroke-miterlimit="22.9256" stroke-linecap="round" stroke-linejoin="round"/>
<path fill-rule="evenodd" clip-rule="evenodd" d="M82.9004 45.4003V73.0803L106.87 59.2403V31.5703L82.9004 45.4003Z" fill="#00A7D1" stroke="white" stroke-miterlimit="22.9256" stroke-linecap="round" stroke-linejoin="round"/>
<path fill-rule="evenodd" clip-rule="evenodd" d="M24.9697 17.8691L36.9497 24.7892L48.9397 31.7091V45.5492V59.3791L36.9497 66.2992L24.9697 73.2191L12.9897 66.2992L1.00977 59.3791V45.5492V31.7091L12.9897 24.7892L24.9697 17.8691Z" fill="#00CCFF" stroke="white" stroke-miterlimit="22.9256" stroke-linecap="round" stroke-linejoin="round"/>
<path fill-rule="evenodd" clip-rule="evenodd" d="M24.97 45.541V73.2209L1 59.3809V31.7109L24.97 45.541Z" fill="#00CCFF" stroke="white" stroke-miterlimit="22.9256" stroke-linecap="round" stroke-linejoin="round"/>
<path fill-rule="evenodd" clip-rule="evenodd" d="M24.9707 45.541V73.2209L48.9407 59.3809V31.7109L24.9707 45.541Z" fill="#00A7D1" stroke="white" stroke-miterlimit="22.9256" stroke-linecap="round" stroke-linejoin="round"/>
<path fill-rule="evenodd" clip-rule="evenodd" d="M82.8995 45.541V73.2209L58.9395 59.3809V31.7109L82.8995 45.541Z" fill="#00CCFF" stroke="white" stroke-miterlimit="22.9256" stroke-linecap="round" stroke-linejoin="round"/>
<path d="M77.8953 48.4231L53.9297 34.5723L29.9641 48.4231L53.9297 62.2739L77.8953 48.4231Z" fill="#5CDEFF" stroke="white" stroke-width="0.32093" stroke-miterlimit="22.9256" stroke-linecap="round" stroke-linejoin="round"/>
<path fill-rule="evenodd" clip-rule="evenodd" d="M53.9309 62.2694V89.9494L29.9609 76.1094V48.4395L53.9309 62.2694Z" fill="#00CCFF" stroke="white" stroke-miterlimit="22.9256" stroke-linecap="round" stroke-linejoin="round"/>
<path fill-rule="evenodd" clip-rule="evenodd" d="M53.9297 62.2694V89.9494L77.8898 76.1094V48.4395L53.9297 62.2694Z" fill="#00CCFF" stroke="white" stroke-miterlimit="22.9256" stroke-linecap="round" stroke-linejoin="round"/>
</svg>
