<svg width="24" height="24" viewBox="0 0 24 24" fill="none" xmlns="http://www.w3.org/2000/svg">
<path fill-rule="evenodd" clip-rule="evenodd" d="M6 2C3.79086 2 2 3.79086 2 6V18C2 20.2091 3.79086 22 6 22H22V20H21H5.60526H5.5C4.67157 20 4 19.3284 4 18.5C4 17.6716 4.67157 17 5.5 17H5.60526H21H22V2H6ZM13 14L10 5H8L5 14H7L7.5 12.5H10.5L11 14H13ZM10 11L9 8L8 11H10ZM17.0664 14C16.9976 13.8643 16.9364 13.6641 16.8828 13.4004C16.7422 13.5908 16.5966 13.7246 16.4324 13.8164C16.181 13.957 15.8864 14 15.5 14C14.9148 14 14.3085 13.9346 13.8992 13.5557C13.4899 13.1719 13.2853 12.6924 13.2853 12.1152C13.2853 11.3896 13.5339 10.8418 14.0311 10.4707C14.2499 10.3076 14.5125 10.1797 14.8186 10.0879C15.2084 9.97168 15.6688 9.91406 16.2001 9.91406H16.7968V9.5625C16.7968 8.94824 16.55 8.64062 16.0566 8.64062C15.5975 8.64062 15.368 8.88379 15.368 9.37012H13.4344C13.4344 9.16406 13.4603 8.96973 13.5121 8.78809C13.6226 8.40039 13.8511 8.06934 14.1976 7.79395C14.7101 7.39062 15.3623 7.18848 16.1542 7.18848C16.9459 7.18848 17.5713 7.39648 18.0304 7.8125C18.4894 8.22852 18.7246 8.7998 18.7361 9.52539V12.4863C18.7438 13.0996 18.8318 13.5693 19 13.8955V14H17.0664ZM15.8557 12.6406C16.0968 12.6406 16.2957 12.585 16.4525 12.4736C16.6132 12.3623 16.7279 12.2363 16.7968 12.0967V11.0273H16.2345C15.5613 11.0273 15.2246 11.3525 15.2246 12.0039C15.2246 12.1934 15.2839 12.3477 15.4025 12.4678C15.5211 12.583 15.6721 12.6406 15.8557 12.6406Z" fill="#6699FF"/>
</svg>
