<svg width="24" height="24" viewBox="0 0 24 24" fill="none" xmlns="http://www.w3.org/2000/svg">
<path fill-rule="evenodd" clip-rule="evenodd" d="M2.2594 2.32715C2.09827 2.50488 2 2.74121 2 3V21C2 21.5527 2.44775 22 3 22H21C21.5522 22 22 21.5527 22 21V3C22 2.44727 21.5522 2 21 2H3C2.70642 2 2.44238 2.12598 2.2594 2.32715ZM6.5 9C7.88074 9 9 7.88086 9 6.5C9 5.11914 7.88074 4 6.5 4C5.11926 4 4 5.11914 4 6.5C4 7.88086 5.11926 9 6.5 9ZM16.6881 10.293C16.2941 9.90234 15.6553 9.90234 15.2612 10.293L10.7415 14.7725L8.26147 12.293C7.87097 11.9023 7.23779 11.9023 6.84729 12.293L4 15.1406V19.5C4 19.6553 4.07031 19.793 4.18091 19.8848C4.23218 19.9277 4.29211 19.96 4.35767 19.9795C4.40283 19.9932 4.45056 20 4.5 20H19.5C19.7761 20 20 19.7764 20 19.5V13.5752L16.6881 10.293Z" fill="#99CC33"/>
</svg>
