<svg width="63" height="48" viewBox="0 0 63 48" fill="none" xmlns="http://www.w3.org/2000/svg">
<path fill-rule="evenodd" clip-rule="evenodd" d="M12.5 36L8.23045e-06 36L9.33116e-06 48L12.5 48L12.5 36Z" fill="#05613B"/>
<path fill-rule="evenodd" clip-rule="evenodd" d="M25 36L12.5 36L12.5 48L25 48L25 36Z" fill="#056C41"/>
<path fill-rule="evenodd" clip-rule="evenodd" d="M37.5 36L25 36L25 48L37.5 48L37.5 36Z" fill="#067548"/>
<path fill-rule="evenodd" clip-rule="evenodd" d="M50 36L37.5 36L37.5 48L50 48L50 36Z" fill="#07804F"/>
<path fill-rule="evenodd" clip-rule="evenodd" d="M62.5 36L50 36L50 48L62.5 48L62.5 36Z" fill="#088A55"/>
<path fill-rule="evenodd" clip-rule="evenodd" d="M12.5 24L8.23045e-06 24L9.33116e-06 36L12.5 36L12.5 24Z" fill="#056C41"/>
<path fill-rule="evenodd" clip-rule="evenodd" d="M25 24L12.5 24L12.5 36L25 36L25 24Z" fill="#067548"/>
<path fill-rule="evenodd" clip-rule="evenodd" d="M37.5 24L25 24L25 36L37.5 36L37.5 24Z" fill="#07804F"/>
<path fill-rule="evenodd" clip-rule="evenodd" d="M50 24L37.5 24L37.5 36L50 36L50 24Z" fill="#088A55"/>
<path fill-rule="evenodd" clip-rule="evenodd" d="M12.5 12L8.23045e-06 12L9.33116e-06 24L12.5 24L12.5 12Z" fill="#05613B"/>
<path fill-rule="evenodd" clip-rule="evenodd" d="M25 12L12.5 12L12.5 24L25 24L25 12Z" fill="#056C41"/>
<path fill-rule="evenodd" clip-rule="evenodd" d="M37.5 12L25 12L25 24L37.5 24L37.5 12Z" fill="#067548"/>
<path fill-rule="evenodd" clip-rule="evenodd" d="M50 12L37.5 12L37.5 24L50 24L50 12Z" fill="#07804F"/>
<path fill-rule="evenodd" clip-rule="evenodd" d="M12.5 0L8.23045e-06 1.08492e-06L9.28713e-06 12L12.5 12L12.5 0Z" fill="#056C41"/>
<path fill-rule="evenodd" clip-rule="evenodd" d="M25 0L12.5 1.08492e-06L12.5 12L25 12L25 0Z" fill="#067548"/>
<path fill-rule="evenodd" clip-rule="evenodd" d="M37.5 0L25 1.08492e-06L25 12L37.5 12L37.5 0Z" fill="#07804F"/>
<path fill-rule="evenodd" clip-rule="evenodd" d="M50 0L37.5 1.08492e-06L37.5 12L50 12L50 0Z" fill="#088A55"/>
<path fill-rule="evenodd" clip-rule="evenodd" d="M62.5 0L50 1.08492e-06L50 12L62.5 12L62.5 0Z" fill="#088A55"/>
</svg>
