<svg width="21" height="14" viewBox="0 0 21 14" fill="none" xmlns="http://www.w3.org/2000/svg">
<path fill-rule="evenodd" clip-rule="evenodd" d="M8.19199 6.31434C8.19199 6.31434 10.112 6.1772 10.112 3.91892C10.112 1.66977 8.53941 0.563477 6.54627 0.563477H2.87999H2.77942H0V13.1623H2.77942H2.87999H6.54627C6.54627 13.1623 10.5508 13.2903 10.5508 9.44118C10.5508 9.44118 10.7246 6.31434 8.19199 6.31434ZM15.8811 3.77263C11.0446 3.77263 11.0446 8.60918 11.0446 8.60918C11.0446 8.60918 10.7154 13.4275 15.8811 13.4275C15.8811 13.4275 20.1966 13.6743 20.1966 10.072H17.9748C17.9748 10.072 18.048 11.4343 15.9543 11.4343C15.9543 11.4343 13.7417 11.5806 13.7417 9.24004H20.2697C20.2697 9.24004 20.9828 3.77263 15.8811 3.77263ZM17.856 7.55776H13.7143C13.7143 7.55776 13.9886 5.61948 15.936 5.61948C17.8743 5.61948 17.856 7.55776 17.856 7.55776ZM13.1748 2.85834H18.368V1.3132H13.1748V2.85834ZM2.87999 2.80349H6.07999H6.54627C6.54627 2.80349 7.44228 2.80346 7.44228 4.12003C7.44228 5.42746 6.91199 5.61948 6.3177 5.61948H2.87999V2.80349ZM6.38171 10.9223H2.87999V7.55776H6.54627C6.54627 7.55776 7.88113 7.53949 7.88113 9.28577C7.88113 10.7395 6.90285 10.904 6.38171 10.9223Z" fill="#0099E9"/>
</svg>
