<svg width="20" height="20" viewBox="0 0 20 20" fill="none" xmlns="http://www.w3.org/2000/svg">
<path fill-rule="evenodd" clip-rule="evenodd" d="M15.0016 6.26102C14.3616 6.26102 13.8496 5.74902 13.8496 5.11817C13.8496 4.48731 14.3616 3.97531 15.0016 3.97531C15.6324 3.97531 16.1444 4.48731 16.1444 5.11817C16.1444 5.74902 15.6324 6.26102 15.0016 6.26102ZM10.0004 5.2553C12.6793 5.2553 14.8553 7.42215 14.8553 10.101C14.8553 12.7799 12.6793 14.9467 10.0004 14.9467C7.32156 14.9467 5.1547 12.7799 5.1547 10.101C5.1547 7.42215 7.32156 5.2553 10.0004 5.2553ZM10.0004 7.30329C11.5456 7.30329 12.7981 8.55586 12.7981 10.101C12.7981 11.6461 11.5456 12.8987 10.0004 12.8987C8.45528 12.8987 7.20271 11.6461 7.20271 10.101C7.20271 8.55586 8.45528 7.30329 10.0004 7.30329ZM19.3993 14.7547C19.3993 17.3696 17.269 19.4999 14.6541 19.4999H5.34671C2.73185 19.4999 0.601562 17.3696 0.601562 14.7547V5.44729C0.601562 2.83244 2.73185 0.702148 5.34671 0.702148H14.6541C17.269 0.702148 19.3993 2.83244 19.3993 5.44729V14.7547ZM14.6541 2.75014H5.34671C3.85642 2.75014 2.64957 3.95701 2.64957 5.44729V14.7547C2.64957 16.245 3.85642 17.4519 5.34671 17.4519H14.6541C16.1444 17.4519 17.3513 16.245 17.3513 14.7547V5.44729C17.3513 3.95701 16.1444 2.75014 14.6541 2.75014Z" fill="#0099E9"/>
</svg>
