<svg xmlns="http://www.w3.org/2000/svg" fill="none" viewBox="0 0 24 24"><path fill="#7D92B0" fill-rule="evenodd" d="M2.859 0h18.282A2.875 2.875 0 0 1 24 2.869V21.14A2.867 2.867 0 0 1 21.141 24H2.859A2.86 2.86 0 0 1 0 21.141V2.869A2.869 2.869 0 0 1 2.859 0zm12.89 9.122a.87.87 0 0 1-.861-.86c0-.479.392-.861.86-.861.478 0 .86.382.86.86 0 .469-.382.86-.86.86zM12 8.367A3.64 3.64 0 0 1 15.643 12 3.642 3.642 0 0 1 12 15.643 3.642 3.642 0 0 1 8.357 12 3.64 3.64 0 0 1 12 8.367zm0 1.539c1.157 0 2.094.937 2.094 2.094A2.102 2.102 0 0 1 12 14.104 2.11 2.11 0 0 1 9.896 12c0-1.157.947-2.094 2.104-2.094zm7.057 5.594a3.565 3.565 0 0 1-3.567 3.557H8.5A3.563 3.563 0 0 1 4.943 15.5V8.51A3.565 3.565 0 0 1 8.5 4.943h6.99a3.567 3.567 0 0 1 3.567 3.567v6.99zM15.49 6.483H8.5c-1.109 0-2.027.908-2.027 2.027v6.99c0 1.118.918 2.027 2.027 2.027h6.99a2.028 2.028 0 0 0 2.027-2.027V8.51a2.028 2.028 0 0 0-2.027-2.027z" clip-rule="evenodd"/></svg>