<svg width="16" height="18" viewBox="0 0 16 18" fill="none" xmlns="http://www.w3.org/2000/svg">
<path fill-rule="evenodd" clip-rule="evenodd" d="M15.0239 5.857C15.3459 4.54188 14.7273 4.5 13.9392 4.5L9.82909 4.49162L10.2698 1.20052C10.4138 0.14507 9.46473 -0.801468 8.22748 1.05813L5.76142 4.36595C5.39702 4.7764 5.38854 4.85178 5.32922 5.24548V11.9969C5.32922 12.7089 5.8631 12.6 6.70206 12.6H12.346C13.2104 12.6 13.3799 12.4827 13.5748 11.6953L15.0239 5.857ZM3.82081 4.5H1.49885C1.16835 4.5 0.888672 4.76803 0.888672 5.10309V11.9969C0.888672 12.3319 1.16835 12.6 1.49885 12.6H3.82081C4.15979 12.6 4.43942 12.3319 4.43942 11.9969V5.10309C4.43942 4.76803 4.15979 4.5 3.82081 4.5Z" fill="#E0EDFF"/>
</svg>
