<svg xmlns="http://www.w3.org/2000/svg" fill="none" viewBox="0 0 24 24"><path fill="#7D92B0" fill-rule="evenodd" d="M2.867 0h18.266A2.876 2.876 0 0 1 24 2.869V21.14A2.868 2.868 0 0 1 21.133 24H2.867A2.868 2.868 0 0 1 0 21.141V2.869A2.876 2.876 0 0 1 2.867 0zm7.16 14.161l-.316 3.385s-.143 1.052.908 0a31.024 31.024 0 0 1 1.825-1.683c1.186.832 2.466 1.74 3.02 2.218.278.24.507.278.699.268.525-.02.668-.602.668-.602S19.278 7.86 19.364 6.54c0-.134.02-.22.02-.306 0-.124-.01-.248-.03-.306-.056-.162-.123-.2-.229-.248-.22-.077-.602.047-.602.047S5.103 10.575 4.33 11.111c-.163.114-.22.181-.249.258-.124.382.287.555.287.555l3.345 1.09.153.047c.038 0 .105 0 .134-.019.784-.497 7.914-5.02 8.334-5.173.058-.019.106 0 .096.048-.162.583-6.356 6.11-6.356 6.11s-.067.067-.048.124v.01z" clip-rule="evenodd"/></svg>