<svg width="20" height="12" viewBox="0 0 20 12" fill="none" xmlns="http://www.w3.org/2000/svg">
<path fill-rule="evenodd" clip-rule="evenodd" d="M19.1973 11.9427H17.0213C16.1893 11.9427 15.9333 11.2936 14.4522 9.78499C13.163 8.54156 12.5962 8.36786 12.2762 8.36786C11.8282 8.36786 11.7002 8.49586 11.7002 9.10843V11.0833C11.7002 11.6136 11.5356 11.9244 10.1368 11.9244C7.83276 11.9244 5.27277 10.5256 3.47162 7.92899C0.756195 4.11642 0.015625 1.25472 0.015625 0.660435C0.015625 0.349578 0.143623 0.0478516 0.756194 0.0478516H2.94134C3.48991 0.0478516 3.70019 0.303845 3.91048 0.898131C4.98933 4.0067 6.79048 6.74043 7.53105 6.74043C7.80534 6.74043 7.93333 6.61244 7.93333 5.91758V2.69928C7.85104 1.20899 7.06476 1.09014 7.06476 0.559849C7.06476 0.303849 7.27505 0.0478516 7.61334 0.0478516H11.0419C11.5082 0.0478516 11.6819 0.303856 11.6819 0.852428V5.19529C11.6819 5.66157 11.8922 5.82614 12.0202 5.82614C12.2945 5.82614 12.5322 5.66155 13.035 5.14955C14.6076 3.39413 15.723 0.687863 15.723 0.687863C15.8693 0.367863 16.1253 0.075279 16.683 0.075279H18.8591C19.5173 0.075279 19.6636 0.404417 19.5173 0.870703C19.243 2.14156 16.5733 5.90843 16.5733 5.90843C16.3356 6.29243 16.2533 6.45701 16.5733 6.88672C16.8019 7.20672 17.5699 7.85585 18.0728 8.45014C19.0053 9.51071 19.7276 10.3976 19.9196 11.0101C20.1299 11.6227 19.8099 11.9427 19.1973 11.9427Z" fill="#0099E9"/>
</svg>
