<svg xmlns="http://www.w3.org/2000/svg" fill="none" viewBox="0 0 24 24"><path fill="#7D92B0" fill-rule="evenodd" d="M2.859 0h18.282A2.875 2.875 0 0 1 24 2.869V21.14A2.867 2.867 0 0 1 21.141 24H2.859A2.86 2.86 0 0 1 0 21.141V2.869A2.869 2.869 0 0 1 2.859 0zm16.045 16.465h-1.636c-.621 0-.812-.497-1.93-1.616-.967-.937-1.397-1.07-1.636-1.07-.325 0-.42.095-.42.554v1.482c0 .402-.135.631-1.177.631-1.73 0-3.652-1.042-5-3.002-2.037-2.85-2.592-5.001-2.592-5.44 0-.24.096-.46.555-.46h1.635c.41 0 .574.191.726.631.813 2.333 2.161 4.38 2.716 4.38.21 0 .306-.096.306-.612v-2.42c-.067-1.109-.65-1.204-.65-1.606 0-.182.162-.373.41-.373h2.573c.354 0 .478.191.478.603v3.25c0 .354.163.479.249.479.21 0 .382-.125.765-.507 1.176-1.32 2.017-3.356 2.017-3.356.115-.24.306-.46.717-.46h1.635c.488 0 .603.259.488.603-.2.956-2.2 3.777-2.2 3.777-.18.287-.238.42 0 .736.173.24.747.727 1.13 1.176.697.794 1.233 1.463 1.376 1.922.163.46-.076.698-.545.698h.01z" clip-rule="evenodd"/></svg>