<svg viewBox="0 0 32 32" fill="none" xmlns="http://www.w3.org/2000/svg">
<path fill-rule="evenodd" clip-rule="evenodd" d="M3.81329 0H28.1761C30.2734 0 32 1.7266 32 3.82391V28.1867C32 30.284 30.2734 32 28.1761 32H3.81329C1.71596 32 0 30.284 0 28.1867V3.82391C0 1.7266 1.71596 0 3.81329 0ZM11.7683 22.4032L12.0966 22.6044C13.3147 23.3247 14.6918 23.706 16.09 23.706C20.4012 23.706 23.9073 20.1999 23.9073 15.8888C23.9073 11.567 20.4012 8.06092 16.09 8.06092C11.7788 8.06092 8.2727 11.567 8.2727 15.8888C8.2727 17.3082 8.66471 18.7064 9.41678 19.9351L9.61797 20.2741L8.83414 23.187L11.7683 22.4032ZM19.6809 17.2234C19.2784 16.9904 18.77 16.7256 18.2933 16.9162C17.9332 17.0645 17.7107 17.6259 17.4777 17.9119C17.3612 18.0602 17.2128 18.0814 17.0327 18.0073C15.6875 17.4671 14.6495 16.5667 13.908 15.3274C13.7809 15.1367 13.802 14.9884 13.9609 14.8083C14.1833 14.5435 14.4694 14.2469 14.5223 13.8868C14.5859 13.5267 14.4164 13.1135 14.2681 12.7958C14.088 12.3933 13.8762 11.8107 13.4631 11.5882C13.0923 11.3764 12.6051 11.4929 12.2661 11.7683C11.6941 12.2344 11.4188 12.9652 11.4294 13.6855C11.4294 13.8974 11.4505 14.0986 11.5035 14.2999C11.62 14.7766 11.8425 15.2214 12.0861 15.6557C12.2768 15.9735 12.478 16.2807 12.7004 16.5773C13.4207 17.5624 14.3211 18.4098 15.3592 19.0453C15.8782 19.3631 16.4289 19.6385 17.0115 19.8292C17.6577 20.0516 18.2403 20.2741 18.9395 20.1364C19.6703 19.9987 20.3907 19.5432 20.6872 18.8335C20.772 18.6322 20.8143 18.3992 20.7613 18.1768C20.666 17.7213 20.0516 17.4459 19.6809 17.2234ZM6.26022 25.7716L7.65838 20.5389C6.86394 19.1089 6.45082 17.5094 6.45082 15.8888C6.45082 10.5713 10.7725 6.23901 16.09 6.23901C21.4074 6.23901 25.7398 10.5713 25.7398 15.8888C25.7398 21.2062 21.4074 25.528 16.09 25.528C14.4905 25.528 12.9123 25.1254 11.5035 24.3628L6.26022 25.7716Z" fill="#889DBA"/>
</svg>
