<svg width="18" height="18" viewBox="0 0 18 18" fill="none" xmlns="http://www.w3.org/2000/svg">
  <path fill-rule="evenodd" clip-rule="evenodd" d="M8.99608 3.59985C12.6972 3.59985 15.8609 5.84054 17.1004 8.99985C15.8609 12.1592 12.6972 14.3999 8.99608 14.3999C5.29496 14.3999 2.13121 12.1592 0.900391 8.99985C2.13121 5.84054 5.29496 3.59985 8.99608 3.59985ZM8.99608 6.87077C10.1576 6.87077 11.085 7.79794 11.085 8.94835C11.085 9.13722 11.059 9.32606 11.0156 9.50635C10.8423 9.10285 10.4522 8.82814 9.99284 8.82814C9.3861 8.82814 8.88339 9.31751 8.88339 9.91847C8.88339 10.3821 9.16942 10.777 9.5768 10.9315C9.39478 10.9916 9.19544 11.0173 8.99608 11.0173C7.84327 11.0173 6.90712 10.0902 6.90712 8.94835C6.90712 7.79794 7.84327 6.87077 8.99608 6.87077ZM8.99608 5.16229C11.111 5.16229 12.8185 6.85359 12.8185 8.94835C12.8185 11.0345 11.111 12.7258 8.99608 12.7258C6.88982 12.7258 5.17358 11.0345 5.17358 8.94835C5.17358 6.85359 6.88982 5.16229 8.99608 5.16229Z" fill="#7D92B0" />
</svg>