<svg xmlns="http://www.w3.org/2000/svg" fill="none" viewBox="0 0 24 24"><path fill="#7D92B0" fill-rule="evenodd" d="M2.867 0h18.266A2.876 2.876 0 0 1 24 2.869V21.14A2.868 2.868 0 0 1 21.133 24H2.867A2.868 2.868 0 0 1 0 21.141V2.869A2.876 2.876 0 0 1 2.867 0zm16.258 8.424a1.884 1.884 0 0 0-1.309-1.31c-1.166-.316-5.82-.316-5.82-.316s-4.646 0-5.812.306a1.914 1.914 0 0 0-1.31 1.32C4.57 9.59 4.57 12 4.57 12s0 2.429.306 3.576a1.85 1.85 0 0 0 1.309 1.31c1.176.316 5.811.316 5.811.316s4.655 0 5.821-.306a1.85 1.85 0 0 0 1.31-1.31c.305-1.157.305-3.576.305-3.576s.01-2.42-.306-3.586zm-8.611 5.804L14.384 12l-3.87-2.228v4.456z" clip-rule="evenodd"/></svg>