<svg width="60" height="45" viewBox="0 0 60 45" fill="none" xmlns="http://www.w3.org/2000/svg">
<path fill-rule="evenodd" clip-rule="evenodd" d="M12 45L-3.45707e-06 45L-2.49542e-06 34L12 34L12 45Z" fill="#0D59BD" fill-opacity="0.85"/>
<path fill-rule="evenodd" clip-rule="evenodd" d="M24 45L12 45L12 34L24 34L24 45Z" fill="#0D59BD" fill-opacity="0.7"/>
<path fill-rule="evenodd" clip-rule="evenodd" d="M36 45L24 45L24 34L36 34L36 45Z" fill="#0D59BD" fill-opacity="0.55"/>
<path fill-rule="evenodd" clip-rule="evenodd" d="M48 45L36 45L36 34L48 34L48 45Z" fill="#0D59BD" fill-opacity="0.35"/>
<path fill-rule="evenodd" clip-rule="evenodd" d="M60 45L48 45L48 34L60 34L60 45Z" fill="#0D59BD" fill-opacity="0.35"/>
<path fill-rule="evenodd" clip-rule="evenodd" d="M12 33.9902L-3.45707e-06 33.9902L-2.49619e-06 22.999L12 22.999L12 33.9902Z" fill="#0D59BD"/>
<path fill-rule="evenodd" clip-rule="evenodd" d="M24 33.9902L12 33.9902L12 22.999L24 22.999L24 33.9902Z" fill="#0D59BD" fill-opacity="0.85"/>
<path fill-rule="evenodd" clip-rule="evenodd" d="M36 33.9902L24 33.9902L24 22.999L36 22.999L36 33.9902Z" fill="#0D59BD" fill-opacity="0.7"/>
<path fill-rule="evenodd" clip-rule="evenodd" d="M48 33.9902L36 33.9902L36 22.999L48 22.999L48 33.9902Z" fill="#0D59BD" fill-opacity="0.55"/>
<path fill-rule="evenodd" clip-rule="evenodd" d="M12 23L-3.45707e-06 23L-2.49542e-06 12L12 12L12 23Z" fill="#0D59BD" fill-opacity="0.85"/>
<path fill-rule="evenodd" clip-rule="evenodd" d="M24 23L12 23L12 12L24 12L24 23Z" fill="#0D59BD" fill-opacity="0.7"/>
<path fill-rule="evenodd" clip-rule="evenodd" d="M36 23L24 23L24 12L36 12L36 23Z" fill="#0D59BD" fill-opacity="0.55"/>
<path fill-rule="evenodd" clip-rule="evenodd" d="M48 23L36 23L36 12L48 12L48 23Z" fill="#0D59BD" fill-opacity="0.35"/>
<path fill-rule="evenodd" clip-rule="evenodd" d="M12 11.9902L-3.45707e-06 11.9902L-2.49619e-06 0.999015L12 0.999016L12 11.9902Z" fill="#0D59BD"/>
<path fill-rule="evenodd" clip-rule="evenodd" d="M24 11.9902L12 11.9902L12 0.999015L24 0.999016L24 11.9902Z" fill="#0D59BD" fill-opacity="0.85"/>
<path fill-rule="evenodd" clip-rule="evenodd" d="M36 11.9902L24 11.9902L24 0.999015L36 0.999016L36 11.9902Z" fill="#0D59BD" fill-opacity="0.7"/>
<path fill-rule="evenodd" clip-rule="evenodd" d="M48 11.9902L36 11.9902L36 0.999015L48 0.999016L48 11.9902Z" fill="#0D59BD" fill-opacity="0.55"/>
<path fill-rule="evenodd" clip-rule="evenodd" d="M60 11.9902L48 11.9902L48 0.999015L60 0.999016L60 11.9902Z" fill="#0D59BD" fill-opacity="0.35"/>
</svg>
