<svg width="43" height="33" viewBox="0 0 43 33" fill="none" xmlns="http://www.w3.org/2000/svg">
<path fill-rule="evenodd" clip-rule="evenodd" d="M0.930682 0.777344H6.38236H12.2089C17.9559 0.777344 22.658 5.47938 22.658 11.2264C22.658 16.9734 17.9559 21.664 12.2089 21.664H6.65494V31.3522C6.65494 31.5112 6.53001 31.6248 6.38236 31.6248H0.680846C0.521838 31.6248 0.408203 31.5112 0.408203 31.3522V1.04992C0.408203 0.902267 0.521838 0.777344 0.680846 0.777344H0.930682V0.777344ZM25.77 25.5827V30.1823C25.77 30.7161 25.7018 30.7845 26.2016 31.0003C27.9279 31.7158 30.2109 32.0904 32.0508 32.1926C35.6512 32.3971 39.933 31.6362 41.8865 28.2857C43.1132 26.1731 43.1359 23.5268 41.9774 21.4938C41.137 20.0173 39.3083 18.9271 37.8318 18.2115C36.3553 17.496 33.8453 16.8031 32.6527 15.8718C31.0286 14.5997 31.8805 13.1913 33.6182 12.93C35.3218 12.6574 38.2066 13.1345 39.8194 13.7819C40.2056 13.9409 40.535 14.0886 40.8076 14.1909C41.1596 14.3271 41.5686 14.3612 41.5686 13.8614V9.35246C41.5686 9.03445 41.4777 8.77304 41.1256 8.60268C39.6832 7.8985 36.4689 7.70565 34.8675 7.70565C32.8231 7.71701 30.5061 8.1826 28.8025 9.32972C27.0534 10.5223 25.77 12.6917 25.7359 14.8156C25.6678 17.973 27.5532 19.9945 30.2109 21.4142C31.4943 22.107 33.3569 22.743 34.6631 23.3677C35.424 23.7311 36.4803 24.1856 36.503 25.2078C36.5257 27.1613 33.2887 27.025 31.994 26.9114C29.1432 26.6729 27.3032 25.6962 26.4514 25.2419C25.8722 24.9352 25.77 25.0488 25.77 25.5827V25.5827ZM6.65494 16.3714H10.4598C13.5605 16.3714 16.3771 14.6337 16.3885 11.215C16.3999 7.79634 13.5605 6.06993 10.4598 6.06993H6.65494V16.3714Z" fill="#F3F4F4"/>
</svg>
