<svg width="42" height="37" viewBox="0 0 42 37" fill="none" xmlns="http://www.w3.org/2000/svg">
<path fill-rule="evenodd" clip-rule="evenodd" d="M21.9386 2.2319C21.3935 3.09508 21.2004 3.87864 21.348 4.66232C21.507 5.41193 21.9045 6.0026 22.6087 6.43419C23.2788 6.86578 24.3351 6.97951 25.7888 6.86593C27.6401 6.75235 28.5829 6.35483 28.5829 5.73016C28.6964 4.66254 28.2648 3.52675 27.3676 2.31148C26.3795 1.0167 25.3232 0.380605 24.2215 0.539612C23.3129 0.653189 22.5747 1.20971 21.9386 2.2319V2.2319ZM14.5107 24.9359V24.9587H14.4993C14.4198 25.1063 13.8065 26.0148 10.7854 28.8315C7.04868 32.2389 -0.572388 35.7371 4.3455 29.4904C7.01456 26.0831 14.4879 24.9359 14.5107 24.9359V24.9359ZM3.59592 34.2037C3.60728 34.2605 3.6186 34.3061 3.62996 34.3629C4.61808 34.1698 5.71981 33.7722 6.93509 33.1816C9.01354 32.1594 11.1375 30.6716 13.3408 28.7068C13.886 28.1957 14.4425 27.6503 14.9877 27.0597C15.6578 26.3101 16.362 25.5606 17.0661 24.6975L16.8503 24.7202L16.9185 24.6406L17.1116 24.6179L19.8602 24.4704C22.1431 24.5044 24.4941 24.777 27.0155 25.254C29.412 25.7196 31.2519 26.2762 32.5127 26.9463C32.6717 27.0371 32.8306 27.128 32.9783 27.2302C33.2622 27.4233 33.5007 27.6164 33.6938 27.8095C34.3526 28.4682 34.5911 29.1383 34.4321 29.8084L34.1595 30.5579C34.08 30.8305 34.0459 31.0237 34.1254 31.1827C34.3526 31.8528 35.1816 32.7499 36.6354 33.897C37.2487 34.3741 37.828 34.7944 38.3732 35.1579C39.0319 35.6008 39.6566 35.9642 40.2472 36.2482C40.8719 36.5207 41.2354 36.5662 41.3149 36.3277C41.4512 35.8394 41.2467 34.9762 40.6788 33.7609L40.6447 33.704L40.5766 33.5679L40.5425 33.511L40.5084 33.4428L40.4857 33.3746L40.4403 33.3064C39.9406 32.2842 39.3045 31.228 38.5549 30.2058C37.7371 29.0587 36.8285 28.0024 35.8859 27.0597C34.9886 26.1511 34.0459 25.3675 33.0578 24.6634C30.9793 23.2096 28.4238 21.9943 25.3572 21.0062C24.2215 20.6541 23.1198 20.461 22.0636 20.4156L20.5643 20.4611L20.6097 20.2564L22.8018 17.633C22.8472 17.5876 22.8813 17.5079 22.9267 17.4738C23.4265 16.906 23.9035 16.395 24.3578 15.9521C24.7098 15.6 25.0506 15.2933 25.3913 15.032L25.4027 15.0434C27.0837 15.9747 28.6964 16.2131 30.1502 15.7816C31.3314 15.4295 32.5467 14.6004 33.8869 13.2715L33.9437 13.2033L33.9664 13.192C35.2157 11.9313 35.7268 10.9547 35.5338 10.2505C35.1476 9.10337 34.239 8.51278 32.7511 8.55822C32.081 8.55822 31.1724 8.91012 30.1161 9.50072C29.287 9.96638 28.6624 10.3981 28.3103 10.7502C25.0847 9.29639 22.7677 8.43321 21.348 8.20606C16.4642 7.33152 12.1937 8.71703 8.52512 12.3401C8.21846 12.6468 7.91181 12.9763 7.60515 13.3057C5.52669 15.6681 4.53858 17.0422 4.77709 17.4397C5.09511 17.9395 5.99238 17.5534 5.99238 17.5534C6.26496 17.4739 6.61708 17.349 7.0146 17.2354C8.79776 16.6107 9.85399 16.1109 10.172 15.7588C10.3197 15.6339 10.3765 15.5203 10.3538 15.4294L10.4333 14.2143C10.4901 13.5442 10.8194 12.8855 11.41 12.2722C11.6712 12.0223 11.9665 11.7723 12.3186 11.5452C14.3971 10.1254 16.4074 9.88699 18.3723 10.7502C18.997 11.0341 19.8601 11.5792 20.9618 12.3288C22.2566 13.226 23.1993 13.8168 23.7899 14.1689L23.8808 14.2143C23.8694 14.2257 23.8467 14.2371 23.824 14.2484C22.6882 15.1911 21.5865 16.2926 20.4848 17.4397C19.9737 17.9395 19.508 18.5303 19.031 19.0868L17.8612 20.7336C16.6005 21.0062 14.9877 21.5513 13.0228 22.3804C10.0357 23.8002 7.68467 25.1746 5.91286 26.4693C5.71978 26.6283 5.52675 26.7418 5.32231 26.9008C3.11892 28.6726 1.47201 30.6374 0.529326 32.7499C0.370318 33.0679 0.0977497 33.8516 0.68835 34.1696C1.23352 34.4649 2.26707 34.499 3.59592 34.2037V34.2037ZM30.8544 10.7502C31.5699 10.3981 32.2287 10.2049 32.8193 10.0913C33.5348 9.9664 34.0459 10.0461 34.3185 10.2846C34.557 10.4777 34.557 10.716 34.3526 10.9545C33.921 11.4202 33.1373 11.6589 31.9561 11.7043C30.9339 11.7384 30.2751 11.6589 29.9912 11.4204C29.8776 11.3068 30.1502 11.1136 30.8544 10.7502Z" fill="#F3F4F4"/>
</svg>
