<svg width="40" height="41" viewBox="0 0 40 41" fill="none" xmlns="http://www.w3.org/2000/svg">
<path fill-rule="evenodd" clip-rule="evenodd" d="M1.91603 26.55C1.60937 26.8793 1.439 26.675 0.916548 27.1861C0.723467 27.3791 0.507687 27.788 0.507687 28.072C0.484972 28.9125 0.689413 29.3212 1.29137 29.9118C1.48445 30.1162 2.234 30.673 2.43844 30.7412C2.65424 30.798 2.67697 30.8546 2.94955 30.8887C3.42657 30.9455 3.43792 31.184 4.00581 30.8887C4.47147 30.6502 4.42605 30.6048 5.00529 30.6275C5.1643 30.7978 5.33469 31.0022 5.52777 31.1044C5.94801 31.3429 6.26604 31.7747 6.60677 32.1154C6.86799 32.3539 6.94746 32.2743 7.20869 32.581C7.35634 32.7513 7.54942 32.9103 7.70843 33.0806C7.94694 33.3191 8.07191 33.3307 8.31042 33.5578C8.49214 33.7282 8.63974 33.8985 8.82146 34.0575C9.08269 34.2847 9.16223 34.2505 9.42345 34.5345C9.50296 34.6026 9.60514 34.7161 9.67329 34.7843C9.86637 34.966 9.82097 34.8526 9.99134 34.9662C10.0708 35.0116 10.1844 35.182 10.2299 35.2274L11.6609 36.1361C11.7404 36.1815 11.7177 36.2154 11.8199 36.2836C12.1152 36.488 11.9903 36.3289 12.3878 36.7264C13.5576 37.8963 13.3532 38.4982 13.7848 38.4642C13.9438 38.237 13.8189 38.3395 13.8984 38.1237C13.8984 38.1237 14.012 37.9076 14.0347 37.8622C14.1369 37.635 14.2505 37.5442 14.2391 37.3057L14.2959 37.3511L14.4776 37.1127C14.5344 37.1127 14.5685 37.0901 14.7502 37.2605C14.9433 37.4422 14.966 37.4988 15.0682 37.6919C15.1704 37.8623 15.2954 37.9305 15.443 38.0782C15.6475 38.3167 15.4998 38.3279 15.6816 38.4414L15.8519 38.7367L15.8632 38.7254C15.92 38.9639 16.0336 39.0888 16.1586 39.316C16.2835 39.5545 16.2948 39.8614 16.4198 40.0885C16.7151 39.9636 16.5674 39.9293 16.7378 39.5999C16.8287 39.4182 16.8855 39.2024 16.9536 39.0093C16.999 38.873 16.9877 38.8389 17.0331 38.714C17.0445 38.6913 17.1922 38.4303 17.1922 38.419C17.3284 38.101 17.2943 37.6807 17.7373 38.0555C18.1348 38.3848 18.3052 38.3165 18.7254 39.0093C18.7708 39.0888 18.8504 39.1345 18.8958 39.2253C18.998 39.4184 18.8844 39.3387 19.0094 39.5658C19.4069 39.2478 19.5772 38.1348 20.077 37.919C20.3041 38.2143 20.5313 38.7368 20.6221 39.0548C20.6903 39.282 20.713 39.5774 20.8493 39.7364C20.9061 39.8045 20.8947 39.7705 20.9628 39.816L21.667 38.5438C21.7692 38.3393 21.8261 38.3735 21.9397 38.1237L22.4167 37.2718C22.5189 37.0674 22.7119 36.5107 22.9504 36.4879C23.0072 36.9309 23.0981 37.0785 23.0981 37.3398C23.0981 37.6919 23.2117 37.8736 23.2344 38.2257C23.541 38.1576 23.8137 37.5103 24.1431 37.1809C24.3134 37.0105 24.3475 36.8288 24.5747 36.6016L25.1538 36.2381L25.1766 37.3511C25.4832 37.2603 25.4833 37.1014 25.6195 36.8969C25.6763 36.8061 25.7672 36.738 25.8467 36.6585C26.0625 36.4427 25.8694 36.6017 26.017 36.3518C26.1988 36.0224 27.2778 35.0684 27.7321 34.9207C28.4022 34.7163 28.3681 34.8524 28.7769 34.7729C29.0722 34.7161 28.7429 34.7845 28.9587 34.6936C29.1631 34.6028 29.1518 34.6709 29.3562 34.6481C29.7196 34.6027 29.4471 34.5685 29.6969 34.5345L29.7197 35.1364C30.0604 35.0456 30.1626 34.6821 30.3329 34.4776C30.5374 34.2277 30.8441 34.0689 30.9803 33.8077C31.3779 33.0581 32.2183 32.8423 32.8317 32.3766C33.1042 32.1722 33.3768 32.1154 33.6267 31.8428L34.9442 30.5252C35.1827 30.298 35.0805 30.389 35.2054 30.1164C35.6598 30.3095 35.8755 30.5365 36.398 30.5024C36.7955 30.4797 37.4543 30.3662 37.8404 30.2753C38.8058 30.0254 39.1125 29.5258 39.4305 28.6285C39.7485 27.7199 39.6917 26.8227 38.9875 26.1299C38.6127 25.7437 38.0335 26.0163 37.8972 25.5506C37.7155 24.96 40.2255 16.3849 38.4651 12.705C38.3061 12.3529 38.1925 11.9668 37.9881 11.6261C37.4202 10.6266 36.7955 9.60433 36.0459 8.71843C35.0464 7.54858 33.9788 6.41278 32.6954 5.56095C31.3211 4.65234 30.1285 3.8234 28.5839 3.18737C27.1301 2.59677 25.1652 1.89246 23.6433 1.63123C22.4735 1.43815 20.6449 1.0065 19.4637 1.0065C18.9412 1.01786 18.3733 1.07462 17.8622 0.972398C17.1126 0.81339 17.1353 1.00653 16.4993 1.02924C15.9655 1.0406 15.4089 0.949749 14.8751 1.04061C14.3868 1.13147 13.8643 1.13164 13.41 1.21114C11.3883 1.62002 9.16222 2.10822 7.42449 3.30078C6.25464 4.11854 4.88036 5.24292 4.01718 6.39004C1.73428 9.42255 0.848379 11.8419 0.325925 15.6013C0.235064 16.2373 0.303213 16.5554 0.257782 17.1119C0.223709 17.6571 0.0419911 18.0317 0.121495 18.5996C0.223714 19.2583 0.269117 19.4515 0.235044 20.1443C0.189613 21.1665 0.666651 23.245 1.0301 24.1764C1.24589 24.7329 1.9501 26.0729 1.91603 26.55V26.55ZM19.4182 32.4448L19.3728 32.581L19.4182 32.4448ZM19.0889 32.104C19.0889 32.0586 19.1343 32.0018 19.1684 32.1154C19.1911 32.2176 19.0889 32.1835 19.0889 32.104ZM25.4492 27.1861C25.4492 27.0838 25.4946 27.0952 25.5287 27.1861C25.5514 27.2883 25.4492 27.2428 25.4492 27.1861ZM17.9076 26.55C17.794 26.6181 17.8281 26.607 17.7827 26.4934C17.919 26.448 17.8622 26.4591 17.9076 26.55ZM24.5178 26.3001C24.4042 26.3569 24.4497 26.3569 24.4043 26.2433C24.5406 26.1978 24.4837 26.1979 24.5178 26.3001ZM21.5535 25.5734C21.8601 25.5166 21.7125 25.5165 21.8715 25.4597C22.3599 25.2893 23.1662 25.1984 23.6546 25.3915C23.8477 25.4596 24.1317 25.4256 24.3589 25.4483C24.5519 25.6868 24.5065 25.5053 24.5292 25.9028L24.268 25.9934C24.2453 26.4023 23.7001 27.2657 23.5752 27.3452C23.1663 27.5951 22.9391 27.6403 22.5416 27.6403C21.951 27.6289 21.5989 27.3564 21.349 26.868L20.8039 26.8566C20.8266 26.6295 21.4853 25.9368 21.5535 25.5734V25.5734ZM17.9985 26.766C17.9644 26.8455 17.919 26.9929 17.8736 27.1065L17.4306 27.1292C16.9195 27.7312 16.8968 27.6745 16.4539 27.8449C16.0677 27.9925 15.4203 27.8222 15.1704 27.5723C14.807 27.1975 15.0341 27.2655 14.3073 26.5613C14.3868 26.4023 14.3981 26.3457 14.3868 26.1299C14.2505 26.0163 14.1369 25.914 14.1369 25.7209C14.3414 25.6754 14.4095 25.6981 14.6026 25.6868C15.2386 25.6754 14.364 25.562 15.9314 25.562C16.3289 25.562 16.488 25.4937 16.8287 25.664C17.2489 25.8798 16.9196 25.9139 17.4761 25.9593C17.442 26.2433 17.3738 26.0616 17.5555 26.3229C17.6918 26.5273 17.6237 26.4252 17.6578 26.7091C17.8849 26.8227 17.7713 26.8341 17.9985 26.766V26.766ZM25.3242 23.4039C25.3242 23.3698 25.3697 23.3016 25.4037 23.4152C25.4265 23.5061 25.3242 23.4947 25.3242 23.4039ZM12.615 23.5403L12.8308 23.847L12.5127 23.7787C12.2628 24.0968 12.3424 24.2103 12.331 24.551C12.2969 24.9372 12.0812 24.8238 12.2629 25.3121C12.3992 25.687 12.2515 25.755 12.3538 26.0958C12.4901 26.6069 12.5809 26.9816 12.8648 27.4245C13.0125 27.663 13.1715 27.7086 13.2737 27.8335C13.4214 28.0152 13.3646 28.1173 13.6599 28.265C14.7616 28.8329 14.5458 28.5831 15.0342 28.6967C15.1591 28.7194 15.2159 28.7874 15.3635 28.8101C15.5566 28.8328 15.6929 28.7874 15.8746 28.7988C16.7378 28.8442 16.4766 29.06 16.6924 29.6279C16.8287 29.9686 16.7378 30.9795 16.7378 31.4111C16.7265 32.4106 16.9763 32.4334 17.0104 32.9559C17.2375 33.0467 17.4193 33.1601 17.5669 33.3532C17.8054 33.3532 17.8963 33.2853 17.9531 33.2853C18.2711 33.2626 18.3506 33.6601 18.8844 32.706C19.634 32.7287 19.793 34.0689 20.8947 32.899C21.7806 31.979 21.2809 31.5361 21.4058 30.3435C21.4285 30.1391 21.5648 29.4576 21.7579 29.1737C22.2008 28.5263 22.0305 28.8215 22.7346 28.583C23.064 28.4808 23.1209 28.583 23.4275 28.5376C23.7569 28.4808 23.6092 28.4241 24.0522 28.4128C24.8586 28.3901 24.9722 27.9584 25.063 27.8222C25.3015 27.7994 25.1879 27.947 25.4037 27.7312C26.3805 26.8112 26.4486 24.8011 25.8807 23.6085C25.5854 22.9611 25.5514 23.2336 25.0517 22.9724C24.5065 22.6771 23.5979 22.6998 23.0413 22.6998C22.7801 22.6998 21.9737 22.8702 21.7806 22.9838C21.5535 23.1201 21.5989 22.9951 21.3263 22.9951C20.9174 23.1314 20.077 24.6648 19.6908 25.0282C19.2592 25.4371 18.7708 25.0622 18.5437 24.6306C18.396 24.3239 18.1348 23.8356 17.7941 23.8356L17.8622 23.6085C17.6351 23.3813 17.6237 23.3018 17.3171 23.3018L17.3284 23.1199L17.0445 23.1768L17.0672 22.9838C16.7491 22.7907 14.8865 22.609 14.489 22.7339C13.9552 22.8929 13.8643 22.7226 13.3986 23.0406C13.0693 23.2564 12.8989 23.0292 12.615 23.5403V23.5403Z" fill="#F3F4F4"/>
</svg>
