<svg width="38" height="37" viewBox="0 0 38 37" fill="none" xmlns="http://www.w3.org/2000/svg">
<path fill-rule="evenodd" clip-rule="evenodd" d="M0.6701 35.3664C0.613312 35.5936 0.681465 35.4913 0.499742 35.6049C0.55653 35.3664 0.488377 35.4914 0.6701 35.3664ZM29.4051 35.6958L31.3927 30.8575C31.5857 30.2669 31.8016 29.7444 32.0174 29.1424C33.9141 23.7134 34.7545 20.2609 36.0153 14.8205C36.3106 13.5371 37.2305 8.23298 37.2305 6.79055H37.31C37.31 10.868 35.595 18.7503 34.5842 22.4642C33.9368 24.838 33.2099 27.2003 32.3694 29.415C31.8924 30.6416 30.1092 35.1734 29.4051 35.6958V35.6958ZM0 1.71369V36.366H2.16932L2.28287 36.3092C2.63496 36.2297 5.50847 36.3091 7.79136 35.6617C8.97257 35.321 9.42686 35.1281 9.41551 34.1172V19.8633C9.42686 18.9092 9.2338 19.2612 9.07479 18.6252H8.91577C8.90441 19.1931 8.41605 20.488 8.23433 21.0218C7.01906 24.679 5.14502 28.37 3.18014 31.6297C2.85077 32.1862 0.999473 35.1393 0.6701 35.3664C0.726889 35.0938 1.55598 33.7537 1.74906 33.4357C2.12386 32.811 2.4646 32.1864 2.85076 31.5504L4.97464 27.5866C5.89462 25.7353 7.06446 23.316 7.78 21.3171C8.05258 20.5334 8.33654 19.852 8.60912 19.0683C8.92714 18.1824 8.89306 18.3072 8.10938 17.0011L3.3278 8.21026C3.15743 7.86953 2.99842 7.50617 2.79398 7.16544L0.749612 3.12204C0.988124 3.30376 1.05625 3.61035 1.22662 3.90565C1.37427 4.18959 1.52191 4.42805 1.68092 4.70063C1.85128 4.97322 1.9535 5.20032 2.13522 5.49562L4.44086 9.67545C5.87193 12.3559 7.56423 15.1839 9.01802 17.9212L10.4037 20.3743C10.4945 20.522 10.5399 20.6468 10.6308 20.8058C10.7444 21.0102 10.7671 21.0103 10.8807 21.2261C11.1987 21.8167 11.494 22.3051 11.8006 22.8957C12.8001 24.8719 14.3902 27.4616 15.4919 29.5287H22.4882C23.6354 27.348 24.8506 25.2128 25.9864 23.0321C26.7246 21.601 27.9286 19.6021 28.6214 18.171C28.9053 17.6145 29.2006 17.1145 29.5073 16.5694L35.1975 6.0183C35.3792 5.65486 36.3787 3.76937 36.5604 3.63308C36.4241 4.21232 31.3472 14.0481 30.4841 15.5359L29.087 17.9664C28.1898 19.4542 28.4851 19.1477 28.4851 21.2034V34.1172C28.4737 34.6851 28.6554 35.4118 28.9735 35.8661C29.0984 36.0365 29.1439 36.0935 29.5641 36.1162C31.3813 36.1957 35.6745 36.1162 37.5599 36.1162V1.71369H26.2363C26.1454 2.0885 26.0318 2.25885 25.9182 2.55415L23.5672 8.21026C23.3514 8.77815 18.8651 19.1364 18.9219 19.5907C18.9446 19.7724 19.1604 20.2495 19.2399 20.4539C19.3422 20.7151 19.4216 20.9536 19.5352 21.2375C19.9895 22.3619 20.3189 23.4636 20.7619 24.588L21.909 27.9498C21.7273 27.734 21.6137 27.3478 21.5115 27.0866C21.3865 26.78 21.307 26.5642 21.1821 26.2575C20.9322 25.6556 20.7164 25.1104 20.4893 24.5311C20.035 23.4067 19.6261 22.271 19.1377 21.1466C18.8765 20.5446 18.6948 20.0221 18.4563 19.4088C18.2291 18.8182 17.9792 18.2276 17.7521 17.6938L15.367 11.6744C15.2193 11.3223 15.1511 11.1974 15.0262 10.8453L11.2555 1.45249C11.1192 1.1004 11.0737 0.930066 10.9147 0.634766H10.7444L10.415 0.71407C8.39332 0.884435 1.41971 1.38432 0 1.71369V1.71369Z" fill="#F3F4F4"/>
</svg>
