<svg width="40" height="39" viewBox="0 0 40 39" fill="none" xmlns="http://www.w3.org/2000/svg">
<path fill-rule="evenodd" clip-rule="evenodd" d="M32.8627 6.4772C29.4099 2.99039 24.8214 1.0823 19.949 1.0823C15.0652 1.0823 10.4767 2.99039 7.02391 6.4772C3.58253 9.95266 1.67444 14.5755 1.67444 19.5047C1.67444 24.4226 3.58253 29.0452 7.02391 32.5206C10.4767 36.0074 15.0652 37.9155 19.949 37.9155C24.8214 37.9155 29.4099 36.0074 32.8627 32.5206C36.3154 29.0452 38.2122 24.4226 38.2122 19.5047C38.2122 14.5755 36.3154 9.95266 32.8627 6.4772ZM0.833984 19.5047C0.833984 8.85121 9.38632 0.230469 19.949 0.230469C30.5003 0.230469 39.0526 8.85121 39.0526 19.5047C39.0526 30.1355 30.5003 38.7673 19.949 38.7673C9.38632 38.7673 0.833984 30.1355 0.833984 19.5047ZM28.0803 24.831C28.0803 24.831 28.3529 25.2397 29.0457 25.2397C29.818 25.2511 31.1241 24.7401 33.1799 22.5708C33.1799 22.5708 30.9651 27.6362 26.3652 30.3734L23.8438 28.2269L23.7757 28.1701L21.0271 31.1005C21.0271 31.1005 14.7691 30.5779 12.1568 26.7731C12.1568 26.7731 12.577 26.9206 13.0199 26.932C13.5424 26.9434 14.1103 26.7503 14.1103 25.8644V16.9261C14.1103 16.4718 13.7809 15.9606 13.0995 15.9606C12.4748 15.9606 11.5775 16.3808 10.3736 17.6301C7.81813 20.2651 6.76188 22.7638 6.76188 22.7638C6.76188 22.7638 6.03497 19.1293 9.87387 14.7338C13.7128 10.3271 16.5976 8.7256 19.7096 7.89648C19.7096 7.89648 17.2564 9.32774 17.2564 11.4971C17.2564 12.1217 17.3473 12.5533 17.4835 12.8372C17.6653 13.2234 17.9378 13.3596 18.1991 13.3596C18.4148 13.3596 18.6307 13.2688 18.7783 13.1552V24.8992C18.7783 24.8992 18.8464 25.0921 19.0168 25.3193C19.2667 25.6373 19.7096 26.035 20.4365 26.035C21.6632 26.035 23.2532 24.638 23.2532 24.638V15.1315C23.2532 14.1661 22.5263 12.9962 21.7881 12.5874C21.7881 12.5874 23.3441 12.4964 24.1164 13.0984C24.1164 13.0984 26.6946 9.98632 31.4308 9.05499C31.4308 9.05499 28.8867 12.065 28.103 13.5529C27.9553 13.5642 27.9326 16.3923 27.9553 19.209C27.9781 21.9235 28.0462 24.6493 28.0803 24.831Z" fill="#F3F4F4"/>
</svg>
