<svg fill="none" xmlns="http://www.w3.org/2000/svg">
  <path fill-rule="evenodd" clip-rule="evenodd" d="M25.6699 20.3895H30.23V15.7695L25.6699 15.7795V20.3895Z" fill="#889DBA" />
  <path fill-rule="evenodd" clip-rule="evenodd" d="M25.0903 15.7695H20.5303V20.3795H25.0903V15.7695Z" fill="#889DBA" />
  <path fill-rule="evenodd" clip-rule="evenodd" d="M15.3301 4.91956H19.9601V0.349609H15.3301V4.91956Z" fill="#889DBA" />
  <path fill-rule="evenodd" clip-rule="evenodd" d="M19.9601 5.48926H15.3301V10.0492H19.9601V5.48926Z" fill="#889DBA" />
  <path fill-rule="evenodd" clip-rule="evenodd" d="M40.5096 20.96H35.9297V25.52H40.5096V20.96Z" fill="#889DBA" />
  <path fill-rule="evenodd" clip-rule="evenodd" d="M41.0703 10.6396V15.1996H45.6703V10.6396H41.0703Z" fill="#889DBA" />
  <path fill-rule="evenodd" clip-rule="evenodd" d="M15.3301 30.6499H19.9601V26.0898H15.3301V30.6499Z" fill="#889DBA" />
  <path fill-rule="evenodd" clip-rule="evenodd" d="M9.63049 15.7695H5.06055V20.3795H9.63049V15.7695Z" fill="#889DBA" />
  <path fill-rule="evenodd" clip-rule="evenodd" d="M15.3301 25.52H19.9601V20.96H15.3301V25.52Z" fill="#889DBA" />
  <path fill-rule="evenodd" clip-rule="evenodd" d="M35.9297 30.6499H40.5597V26.0898H40.5096H35.9297V30.6499Z" fill="#889DBA" />
  <path fill-rule="evenodd" clip-rule="evenodd" d="M25.0903 5.48926H25.0603H20.5303V10.0492H25.0903V5.48926Z" fill="#889DBA" />
  <path fill-rule="evenodd" clip-rule="evenodd" d="M25.0903 15.1896L25.1003 10.6396H20.5303V15.1896H25.0903Z" fill="#889DBA" />
  <path fill-rule="evenodd" clip-rule="evenodd" d="M25.0603 4.91956V0.349609H20.5303V4.91956H25.0603Z" fill="#889DBA" />
  <path fill-rule="evenodd" clip-rule="evenodd" d="M5.06055 30.6499H9.63049V26.0898H5.06055V30.6499Z" fill="#889DBA" />
  <path fill-rule="evenodd" clip-rule="evenodd" d="M30.23 15.1796V10.6396H25.6699V15.1796H30.23Z" fill="#889DBA" />
  <path fill-rule="evenodd" clip-rule="evenodd" d="M25.6699 25.52H30.23V20.96H25.6699V25.52Z" fill="#889DBA" />
  <path fill-rule="evenodd" clip-rule="evenodd" d="M35.3599 25.52V20.96H30.7998V25.52H35.3599Z" fill="#889DBA" />
  <path fill-rule="evenodd" clip-rule="evenodd" d="M5.06055 25.52H9.63049V20.96H5.06055V25.52Z" fill="#889DBA" />
  <path fill-rule="evenodd" clip-rule="evenodd" d="M20.5303 20.96V25.52H25.0903L25.1003 20.96H20.5303Z" fill="#889DBA" />
  <path fill-rule="evenodd" clip-rule="evenodd" d="M10.2002 10.0492H14.7601V5.48926H10.2002V10.0492Z" fill="#889DBA" />
  <path fill-rule="evenodd" clip-rule="evenodd" d="M5.06055 10.0492H9.63049V5.48926H5.06055V10.0492Z" fill="#889DBA" />
  <path fill-rule="evenodd" clip-rule="evenodd" d="M9.63049 15.1796V10.6396H5.06055V15.1796H9.63049Z" fill="#889DBA" />
  <path fill-rule="evenodd" clip-rule="evenodd" d="M30.23 26.0898H25.6699V30.6499H30.23V26.0898Z" fill="#889DBA" />
  <path fill-rule="evenodd" clip-rule="evenodd" d="M14.7601 0.349609H10.2002V4.91956H14.7601V0.349609Z" fill="#889DBA" />
  <path fill-rule="evenodd" clip-rule="evenodd" d="M10.2002 25.52H14.7601V20.96H10.2002V25.52Z" fill="#889DBA" />
  <path fill-rule="evenodd" clip-rule="evenodd" d="M4.49011 15.7695H0V20.3895H4.49011V20.3795V15.7695Z" fill="#889DBA" />
  <path fill-rule="evenodd" clip-rule="evenodd" d="M35.9697 10.0492H40.5297V5.48926H35.9697V10.0492Z" fill="#889DBA" />
  <path fill-rule="evenodd" clip-rule="evenodd" d="M0 25.52H4.49011V20.96H0V25.52Z" fill="#889DBA" />
  <path fill-rule="evenodd" clip-rule="evenodd" d="M0 15.1796V15.1896L4.49011 15.1796V10.6396H0V15.1796Z" fill="#889DBA" />
  <path fill-rule="evenodd" clip-rule="evenodd" d="M30.1899 5.48926H25.6699V10.0492H30.1899V5.48926Z" fill="#889DBA" />
  <path fill-rule="evenodd" clip-rule="evenodd" d="M30.8298 5.48926H30.7998V10.0492H35.3998V5.56921V5.48926H30.8298Z" fill="#889DBA" />
  <path fill-rule="evenodd" clip-rule="evenodd" d="M30.8301 0.359375V4.91931H35.3601V0.359375H30.8301Z" fill="#889DBA" />
  <path fill-rule="evenodd" clip-rule="evenodd" d="M25.6702 4.91956H30.2402L30.2302 0.349609H25.6602L25.6702 4.91956Z" fill="#889DBA" />
  <path fill-rule="evenodd" clip-rule="evenodd" d="M41.0801 20.3491H45.64V15.7891H41.0801V20.3491Z" fill="#889DBA" />
  <path fill-rule="evenodd" clip-rule="evenodd" d="M41.1396 20.96V25.52H45.6396V20.96H41.1396Z" fill="#889DBA" />
  <path fill-rule="evenodd" clip-rule="evenodd" d="M15.4004 15.1996H19.8904V10.6396H15.4004V15.1996ZM36.0004 15.1996H40.4805L40.4705 10.6396H36.0004V15.1996Z" fill="#889DBA" />
</svg>