<svg width="176" height="117" viewBox="0 0 176 117" fill="none" xmlns="http://www.w3.org/2000/svg">
  <path fill-rule="evenodd" clip-rule="evenodd" d="M98.8381 77.207H116.272V59.5332L98.8381 59.5715V77.207Z" fill="#000" />
  <path fill-rule="evenodd" clip-rule="evenodd" d="M96.6217 59.5332H79.188V77.1687H96.6217V59.5332Z" fill="#000" />
  <path fill-rule="evenodd" clip-rule="evenodd" d="M59.3083 18.0253H77.0095V0.542969H59.3083V18.0253Z" fill="#000" />
  <path fill-rule="evenodd" clip-rule="evenodd" d="M77.0095 20.207H59.3083V37.651H77.0095V20.207Z" fill="#000" />
  <path fill-rule="evenodd" clip-rule="evenodd" d="M155.574 79.3867H138.064V96.8312H155.574V79.3867Z" fill="#000" />
  <path fill-rule="evenodd" clip-rule="evenodd" d="M157.714 39.9062V57.3503H175.301V39.9062H157.714Z" fill="#000" />
  <path fill-rule="evenodd" clip-rule="evenodd" d="M59.3083 116.456H77.0095V99.0117H59.3083V116.456Z" fill="#000" />
  <path fill-rule="evenodd" clip-rule="evenodd" d="M37.5167 59.5332H20.0452V77.1687H37.5167V59.5332Z" fill="#000" />
  <path fill-rule="evenodd" clip-rule="evenodd" d="M59.3083 96.8312H77.0095V79.3867H59.3083V96.8312Z" fill="#000" />
  <path fill-rule="evenodd" clip-rule="evenodd" d="M138.064 116.456H155.765V99.0117H155.574H138.064V116.456Z" fill="#000" />
  <path fill-rule="evenodd" clip-rule="evenodd" d="M96.6217 20.207H96.5069H79.188V37.651H96.6217V20.207Z" fill="#000" />
  <path fill-rule="evenodd" clip-rule="evenodd" d="M96.6217 57.312L96.66 39.9062H79.188V57.312H96.6217Z" fill="#000" />
  <path fill-rule="evenodd" clip-rule="evenodd" d="M96.5069 18.0253V0.542969H79.188V18.0253H96.5069Z" fill="#000" />
  <path fill-rule="evenodd" clip-rule="evenodd" d="M20.0452 116.456H37.5167V99.0117H20.0452V116.456Z" fill="#000" />
  <path fill-rule="evenodd" clip-rule="evenodd" d="M116.272 57.2737V39.9062H98.8381V57.2737H116.272Z" fill="#000" />
  <path fill-rule="evenodd" clip-rule="evenodd" d="M98.8381 96.8312H116.272V79.3867H98.8381V96.8312Z" fill="#000" />
  <path fill-rule="evenodd" clip-rule="evenodd" d="M135.885 96.8312V79.3867H118.451V96.8312H135.885Z" fill="#000" />
  <path fill-rule="evenodd" clip-rule="evenodd" d="M20.0452 96.8312H37.5167V79.3867H20.0452V96.8312Z" fill="#000" />
  <path fill-rule="evenodd" clip-rule="evenodd" d="M79.188 79.3867V96.8312H96.6217L96.66 79.3867H79.188Z" fill="#000" />
  <path fill-rule="evenodd" clip-rule="evenodd" d="M39.6956 37.651H57.1288V20.207H39.6956V37.651Z" fill="#000" />
  <path fill-rule="evenodd" clip-rule="evenodd" d="M20.0452 37.651H37.5167V20.207H20.0452V37.651Z" fill="#000" />
  <path fill-rule="evenodd" clip-rule="evenodd" d="M37.5167 57.2737V39.9062H20.0452V57.2737H37.5167Z" fill="#000" />
  <path fill-rule="evenodd" clip-rule="evenodd" d="M116.272 99.0117H98.8381V116.456H116.272V99.0117Z" fill="#000" />
  <path fill-rule="evenodd" clip-rule="evenodd" d="M57.1288 0.542969H39.6956V18.0253H57.1288V0.542969Z" fill="#000" />
  <path fill-rule="evenodd" clip-rule="evenodd" d="M39.6956 96.8312H57.1288V79.3867H39.6956V96.8312Z" fill="#000" />
  <path fill-rule="evenodd" clip-rule="evenodd" d="M17.865 59.5332H0.69873V77.207H17.865V77.1687V59.5332Z" fill="#000" />
  <path fill-rule="evenodd" clip-rule="evenodd" d="M138.216 37.651H155.649V20.207H138.216V37.651Z" fill="#000" />
  <path fill-rule="evenodd" clip-rule="evenodd" d="M0.69873 96.8312H17.865V79.3867H0.69873V96.8312Z" fill="#000" />
  <path fill-rule="evenodd" clip-rule="evenodd" d="M0.69873 57.2737V57.312L17.865 57.2737V39.9062H0.69873V57.2737Z" fill="#000" />
  <path fill-rule="evenodd" clip-rule="evenodd" d="M116.119 20.207H98.8381V37.651H116.119V20.207Z" fill="#000" />
  <path fill-rule="evenodd" clip-rule="evenodd" d="M118.566 20.207H118.451V37.651H136.037V20.5129V20.207H118.566Z" fill="#000" />
  <path fill-rule="evenodd" clip-rule="evenodd" d="M118.566 0.580078V18.0241H135.885V0.580078H118.566Z" fill="#000" />
  <path fill-rule="evenodd" clip-rule="evenodd" d="M98.8393 18.0253H116.311L116.273 0.542969H98.801L98.8393 18.0253Z" fill="#000" />
  <path fill-rule="evenodd" clip-rule="evenodd" d="M157.755 77.0519H175.188V59.6074H157.755V77.0519Z" fill="#000" />
  <path fill-rule="evenodd" clip-rule="evenodd" d="M157.984 79.3867V96.8312H175.188V79.3867H157.984Z" fill="#000" />
  <path fill-rule="evenodd" clip-rule="evenodd" d="M59.575 57.3503H76.7408V39.9062H59.575V57.3503ZM138.331 57.3503H155.459L155.421 39.9062H138.331V57.3503Z" fill="#000" />
</svg>