<svg width="378" height="234" viewBox="0 0 378 234" fill="none" xmlns="http://www.w3.org/2000/svg">
<g clip-path="url(#clip0_1317_94403)">
<path d="M0 10C0 4.47715 4.47715 0 10 0H368C373.523 0 378 4.47715 378 10V224C378 229.523 373.523 234 368 234H10C4.47716 234 0 229.523 0 224V10Z" fill="#010203"/>
<path fill-rule="evenodd" clip-rule="evenodd" d="M50.3998 197.028H327.6C334.53 197.028 340.2 191.51 340.2 184.712V130.449L272.865 64.6331C267.977 59.83 259.963 59.83 255.049 64.6331L169.772 147.962L122.321 101.58C117.407 96.7773 109.393 96.7773 104.504 101.58L37.7998 166.756V184.712C37.7998 191.51 43.4698 197.028 50.3998 197.028ZM62.9998 36.9473C76.9102 36.9473 88.1998 47.9576 88.1998 61.5542C88.1998 75.1754 76.9102 86.2104 62.9998 86.2104C49.0894 86.2104 37.7998 75.1754 37.7998 61.5542C37.7998 47.9576 49.0894 36.9473 62.9998 36.9473Z" fill="#13171A"/>
</g>
<defs>
<clipPath id="clip0_1317_94403">
<path d="M0 10C0 4.47715 4.47715 0 10 0H368C373.523 0 378 4.47715 378 10V224C378 229.523 373.523 234 368 234H10C4.47716 234 0 229.523 0 224V10Z" fill="white"/>
</clipPath>
</defs>
</svg>
