<svg width="61" height="48" viewBox="0 0 61 48" fill="none" xmlns="http://www.w3.org/2000/svg">
<path fill-rule="evenodd" clip-rule="evenodd" d="M48.8 0H61.0001V12H48.8V0Z" fill="#13557C"/>
<path fill-rule="evenodd" clip-rule="evenodd" d="M36.6001 0H48.8001V12H36.6001V0Z" fill="#164A6A"/>
<path fill-rule="evenodd" clip-rule="evenodd" d="M24.3999 0H36.5999V12H24.3999V0Z" fill="#193E57"/>
<path fill-rule="evenodd" clip-rule="evenodd" d="M12.2 0H24.4V12H12.2V0Z" fill="#1C3345"/>
<path fill-rule="evenodd" clip-rule="evenodd" d="M0 0H12.2V12H0V0Z" fill="#1C3345"/>
<path fill-rule="evenodd" clip-rule="evenodd" d="M48.8 12.0096H61.0001V24H48.8V12.0096Z" fill="#0F618E"/>
<path fill-rule="evenodd" clip-rule="evenodd" d="M36.6001 12.0096H48.8001V24H36.6001V12.0096Z" fill="#13557C"/>
<path fill-rule="evenodd" clip-rule="evenodd" d="M24.3999 12.0096H36.5999V24H24.3999V12.0096Z" fill="#164A6A"/>
<path fill-rule="evenodd" clip-rule="evenodd" d="M12.2 12.0096H24.4V24H12.2V12.0096Z" fill="#193E57"/>
<path fill-rule="evenodd" clip-rule="evenodd" d="M48.8 24H61.0001V36H48.8V24Z" fill="#13557C"/>
<path fill-rule="evenodd" clip-rule="evenodd" d="M36.6001 24H48.8001V36H36.6001V24Z" fill="#164A6A"/>
<path fill-rule="evenodd" clip-rule="evenodd" d="M24.3999 24H36.5999V36H24.3999V24Z" fill="#193E57"/>
<path fill-rule="evenodd" clip-rule="evenodd" d="M12.2 24H24.4V36H12.2V24Z" fill="#1C3345"/>
<path fill-rule="evenodd" clip-rule="evenodd" d="M48.8 36.0096H61.0001V48H48.8V36.0096Z" fill="#0F618E"/>
<path fill-rule="evenodd" clip-rule="evenodd" d="M36.6001 36.0096H48.8001V48H36.6001V36.0096Z" fill="#13557C"/>
<path fill-rule="evenodd" clip-rule="evenodd" d="M24.3999 36.0096H36.5999V48H24.3999V36.0096Z" fill="#164A6A"/>
<path fill-rule="evenodd" clip-rule="evenodd" d="M12.2 36.0096H24.4V48H12.2V36.0096Z" fill="#193E57"/>
<path fill-rule="evenodd" clip-rule="evenodd" d="M0 36.0096H12.2V48H0V36.0096Z" fill="#1C3345"/>
</svg>
