<svg width="101" height="40" viewBox="0 0 101 40" fill="none" xmlns="http://www.w3.org/2000/svg">
<path fill-rule="evenodd" clip-rule="evenodd" d="M60.6001 0H70.7001V10H60.6001V0Z" fill="#13557C"/>
<path fill-rule="evenodd" clip-rule="evenodd" d="M60.6001 20H70.7001V30H60.6001V20Z" fill="#13557C"/>
<path fill-rule="evenodd" clip-rule="evenodd" d="M70.7002 0H80.8004V10H70.7002V0Z" fill="#0F618E"/>
<path fill-rule="evenodd" clip-rule="evenodd" d="M70.7002 20H80.8004V30H70.7002V20Z" fill="#0F618E"/>
<path fill-rule="evenodd" clip-rule="evenodd" d="M80.8003 0H90.9002V10H80.8003V0Z" fill="#0C6CA0"/>
<path fill-rule="evenodd" clip-rule="evenodd" d="M80.8003 20H90.9002V30H80.8003V20Z" fill="#0C6CA0"/>
<path fill-rule="evenodd" clip-rule="evenodd" d="M90.8999 0H101V10H90.8999V0Z" fill="#0977B3"/>
<path fill-rule="evenodd" clip-rule="evenodd" d="M90.8999 20H101V30H90.8999V20Z" fill="#0977B3"/>
<path fill-rule="evenodd" clip-rule="evenodd" d="M30.3003 0H40.4003V10H30.3003V0Z" fill="#1C3345"/>
<path fill-rule="evenodd" clip-rule="evenodd" d="M20.2002 20H30.3001V30H20.2002V20Z" fill="#1C3345"/>
<path fill-rule="evenodd" clip-rule="evenodd" d="M40.3999 0H50.5V10H40.3999V0Z" fill="#193E57"/>
<path fill-rule="evenodd" clip-rule="evenodd" d="M40.3999 20H50.5V30H40.3999V20Z" fill="#193E57"/>
<path fill-rule="evenodd" clip-rule="evenodd" d="M50.5 0H60.5999V10H50.5V0Z" fill="#164A6A"/>
<path fill-rule="evenodd" clip-rule="evenodd" d="M50.5 20H60.5999V30H50.5V20Z" fill="#164A6A"/>
<path fill-rule="evenodd" clip-rule="evenodd" d="M50.5 10H60.5999V20H50.5V10Z" fill="#13557C"/>
<path fill-rule="evenodd" clip-rule="evenodd" d="M60.6001 10H70.7001V20H60.6001V10Z" fill="#0F618E"/>
<path fill-rule="evenodd" clip-rule="evenodd" d="M70.7002 10H80.8004V20H70.7002V10Z" fill="#0C6CA0"/>
<path fill-rule="evenodd" clip-rule="evenodd" d="M80.8003 10H90.9002V20H80.8003V10Z" fill="#0977B3"/>
<path fill-rule="evenodd" clip-rule="evenodd" d="M90.8999 10H101V20H90.8999V10Z" fill="#0682C5"/>
<path fill-rule="evenodd" clip-rule="evenodd" d="M30.3003 10H40.4003V20H30.3003V10Z" fill="#193E57"/>
<path fill-rule="evenodd" clip-rule="evenodd" d="M40.3999 10H50.5V20H40.3999V10Z" fill="#164A6A"/>
<path fill-rule="evenodd" clip-rule="evenodd" d="M50.5 30H60.5999V40H50.5V30Z" fill="#13557C"/>
<path fill-rule="evenodd" clip-rule="evenodd" d="M60.6001 30H70.7001V40H60.6001V30Z" fill="#0F618E"/>
<path fill-rule="evenodd" clip-rule="evenodd" d="M70.7002 30H80.8004V40H70.7002V30Z" fill="#0C6CA0"/>
<path fill-rule="evenodd" clip-rule="evenodd" d="M80.8003 30H90.9002V40H80.8003V30Z" fill="#0977B3"/>
<path fill-rule="evenodd" clip-rule="evenodd" d="M90.8999 30H101V40H90.8999V30Z" fill="#0682C5"/>
<path fill-rule="evenodd" clip-rule="evenodd" d="M30.3003 30H40.4003V40H30.3003V30Z" fill="#193E57"/>
<path fill-rule="evenodd" clip-rule="evenodd" d="M40.3999 30H50.5V40H40.3999V30Z" fill="#164A6A"/>
<path fill-rule="evenodd" clip-rule="evenodd" d="M10.1001 20H20.2002V30H10.1001V20Z" fill="#1C3345"/>
<path fill-rule="evenodd" clip-rule="evenodd" d="M10.1001 30H20.2002V40H10.1001V30Z" fill="#1C3345"/>
<path fill-rule="evenodd" clip-rule="evenodd" d="M20.2002 30H30.3001V40H20.2002V30Z" fill="#193E57"/>
<path fill-rule="evenodd" clip-rule="evenodd" d="M30.3003 20H40.4003V30H30.3003V20Z" fill="#193E57"/>
<path fill-rule="evenodd" clip-rule="evenodd" d="M0 30H10.1001V40H0V30Z" fill="#1C3345"/>
<path fill-rule="evenodd" clip-rule="evenodd" d="M20.2002 10H30.3001V20H20.2002V10Z" fill="#193E57"/>
</svg>
