<svg width="119" height="35" viewBox="0 0 119 35" fill="none" xmlns="http://www.w3.org/2000/svg">
<path fill-rule="evenodd" clip-rule="evenodd" d="M29.6104 23.1301H34.8704V17.8101H29.6104V23.1301Z" fill="#0099E9"/>
<path fill-rule="evenodd" clip-rule="evenodd" d="M28.9404 17.8101H23.6904V23.1301H28.9404V17.8101Z" fill="#0099E9"/>
<path fill-rule="evenodd" clip-rule="evenodd" d="M17.6904 5.28979H23.0205V0.0297852H17.6904V5.28979Z" fill="#0099E9"/>
<path fill-rule="evenodd" clip-rule="evenodd" d="M23.0205 5.9502H17.6904V11.2101H23.0205V5.9502Z" fill="#0099E9"/>
<path fill-rule="evenodd" clip-rule="evenodd" d="M46.7205 23.79H41.4404V29.05H46.7205V23.79Z" fill="#0099E9"/>
<path fill-rule="evenodd" clip-rule="evenodd" d="M47.3701 11.8901V17.1501H52.6801V11.8901H47.3701Z" fill="#0099E9"/>
<path fill-rule="evenodd" clip-rule="evenodd" d="M17.6904 34.97H23.0305V29.71H23.0205H17.6904V34.97Z" fill="#0099E9" fill-opacity="0.501961"/>
<path fill-rule="evenodd" clip-rule="evenodd" d="M11.1096 17.8101H5.84961V23.1301H11.1096V17.8101Z" fill="#0099E9" fill-opacity="0.701961"/>
<path fill-rule="evenodd" clip-rule="evenodd" d="M17.6904 29.05H23.0205V23.79H17.6904V29.05Z" fill="#0099E9" fill-opacity="0.501961"/>
<path fill-rule="evenodd" clip-rule="evenodd" d="M41.4404 34.98L46.7805 34.97V29.71H46.7205H41.4404V34.98Z" fill="#0099E9" fill-opacity="0.8"/>
<path fill-rule="evenodd" clip-rule="evenodd" d="M28.9397 5.9502H28.9097H23.6897L23.6797 11.2101H28.9397V5.9502Z" fill="#0099E9"/>
<path fill-rule="evenodd" clip-rule="evenodd" d="M28.9397 17.1401L28.9497 11.8901H23.6797V17.1401H28.9397Z" fill="#0099E9"/>
<path fill-rule="evenodd" clip-rule="evenodd" d="M28.9097 5.28979V0.0297852H23.6897L23.6797 5.28979H23.6897H28.9097Z" fill="#0099E9"/>
<path fill-rule="evenodd" clip-rule="evenodd" d="M5.84961 34.97H11.1096V29.71H5.84961V34.97Z" fill="#0099E9" fill-opacity="0.501961"/>
<path fill-rule="evenodd" clip-rule="evenodd" d="M34.8704 17.1301V11.8901H29.6104V17.1301H34.8704Z" fill="#0099E9" fill-opacity="0.901961"/>
<path fill-rule="evenodd" clip-rule="evenodd" d="M29.5996 29.05H34.8696V23.79H29.6096L29.5996 29.05Z" fill="#0099E9" fill-opacity="0.701961"/>
<path fill-rule="evenodd" clip-rule="evenodd" d="M40.7895 29.05V23.79H35.5295L35.5195 29.05H40.7895Z" fill="#0099E9" fill-opacity="0.701961"/>
<path fill-rule="evenodd" clip-rule="evenodd" d="M5.84961 29.05H11.1096V23.79H5.84961V29.05Z" fill="#0099E9" fill-opacity="0.701961"/>
<path fill-rule="evenodd" clip-rule="evenodd" d="M23.6904 23.79V29.05H28.9504V23.79H23.6904Z" fill="#0099E9" fill-opacity="0.701961"/>
<path fill-rule="evenodd" clip-rule="evenodd" d="M11.7695 11.2101H17.0295V5.9502H11.7695V11.2101Z" fill="#0099E9"/>
<path fill-rule="evenodd" clip-rule="evenodd" d="M5.84961 11.2101H11.1096V5.9502H5.84961V11.2101Z" fill="#0099E9" fill-opacity="0.8"/>
<path fill-rule="evenodd" clip-rule="evenodd" d="M11.1096 17.1301V11.8901H5.84961V17.1301H11.1096Z" fill="#0099E9" fill-opacity="0.501961"/>
<path fill-rule="evenodd" clip-rule="evenodd" d="M34.8704 29.71H34.8604H29.6104V34.97H34.8704V29.71Z" fill="#0099E9" fill-opacity="0.701961"/>
<path fill-rule="evenodd" clip-rule="evenodd" d="M17.0295 0.0297852H11.7695V5.28979H17.0295V0.0297852Z" fill="#0099E9"/>
<path fill-rule="evenodd" clip-rule="evenodd" d="M11.7695 29.05H17.0295V23.79H11.7695V29.05Z" fill="#0099E9" fill-opacity="0.701961"/>
<path fill-rule="evenodd" clip-rule="evenodd" d="M5.18878 17.8101H0.00878906V23.1301H5.18878V17.8101Z" fill="#0099E9" fill-opacity="0.501961"/>
<path fill-rule="evenodd" clip-rule="evenodd" d="M41.4905 11.2101H46.7405V5.9502H41.4805L41.4905 11.2101Z" fill="#0099E9"/>
<path fill-rule="evenodd" clip-rule="evenodd" d="M0 29.05H5.19V23.79H0V29.05Z" fill="#0099E9" fill-opacity="0.501961"/>
<path fill-rule="evenodd" clip-rule="evenodd" d="M0 17.1301H0.0100098V17.1401L5.19 17.1301V11.8901L0 11.9001V17.1301Z" fill="#0099E9" fill-opacity="0.501961"/>
<path fill-rule="evenodd" clip-rule="evenodd" d="M34.8304 5.9502H29.6104V11.2101H34.8304V5.9502Z" fill="#0099E9"/>
<path fill-rule="evenodd" clip-rule="evenodd" d="M35.5602 5.9502H35.5303V11.2101H40.8203V6.05017V5.9502H35.5602Z" fill="#0099E9"/>
<path fill-rule="evenodd" clip-rule="evenodd" d="M35.5596 0.0297852V5.28979H40.7796V0.0297852H35.5596Z" fill="#0099E9"/>
<path fill-rule="evenodd" clip-rule="evenodd" d="M29.6096 5.28979H34.8696V0.0297852H29.5996L29.6096 5.28979Z" fill="#0099E9"/>
<path fill-rule="evenodd" clip-rule="evenodd" d="M47.3799 23.09H52.6399V17.8301H47.3799V23.09Z" fill="#0099E9"/>
<path fill-rule="evenodd" clip-rule="evenodd" d="M47.4404 23.79V29.05H52.6404V23.79H47.4404Z" fill="#0099E9"/>
<path fill-rule="evenodd" clip-rule="evenodd" d="M101.21 11.1902V11.2202H95.9502V5.93018H101.11H101.21V11.1902Z" fill="#0099E9"/>
<path fill-rule="evenodd" clip-rule="evenodd" d="M95.9502 5.27002V0H101.21V5.27002H95.9502Z" fill="#0099E9" fill-opacity="0.701961"/>
<path fill-rule="evenodd" clip-rule="evenodd" d="M101.88 11.2297V5.96973H107.14V11.2297H101.88Z" fill="#0099E9" fill-opacity="0.34902"/>
<path fill-rule="evenodd" clip-rule="evenodd" d="M17.7598 17.1501H22.9498V11.8901L17.7598 11.9001V17.1501ZM41.5198 17.1501H46.6797V11.8901L41.5198 11.9001V17.1501Z" fill="#FEFEFE"/>
<path d="M66.4104 0.00976562C67.4604 0.00976562 68.4604 0.219722 69.3804 0.589722C70.3204 0.989722 71.1804 1.55972 71.9004 2.27972L72.0304 2.41974L69.5204 4.92975L69.3904 4.78973C68.6304 4.02973 67.5704 3.55975 66.4104 3.55975C65.8404 3.55975 65.2904 3.66975 64.8004 3.86975C64.2804 4.08975 63.8204 4.39973 63.4304 4.78973L63.3704 4.84973C62.6404 5.59973 62.2004 6.62978 62.2004 7.76978C62.2004 8.33978 62.3104 8.87976 62.5204 9.37976C62.7304 9.88976 63.0404 10.3598 63.4304 10.7498C63.8204 11.1398 64.2804 11.4497 64.8004 11.6597C65.2904 11.8697 65.8404 11.9797 66.4104 11.9797C66.9804 11.9797 67.5304 11.8697 68.0204 11.6597C68.5104 11.4597 68.9504 11.1698 69.3304 10.8098V10.7997L69.5204 10.6097L72.0304 13.1198L71.7604 13.3898H71.7504C71.0704 14.0398 70.2604 14.5698 69.3704 14.9398C68.4604 15.3198 67.4604 15.5297 66.4104 15.5297C65.3604 15.5297 64.3604 15.3198 63.4404 14.9398C62.4904 14.5498 61.6403 13.9698 60.9203 13.2598C60.2103 12.5398 59.6303 11.6897 59.2303 10.7397C58.8603 9.81975 58.6504 8.81978 58.6504 7.76978C58.6504 6.71978 58.8604 5.71974 59.2404 4.79974C59.6004 3.91974 60.1303 3.10974 60.7903 2.41974H60.7804L60.9203 2.27972C61.6303 1.56972 62.4904 0.989722 63.4404 0.589722C64.3504 0.219722 65.3604 0.00976562 66.4104 0.00976562Z" fill="#FEFEFE"/>
<path d="M58.5498 29.0499V17.6299H62.0498V29.2499H58.5498V29.0499ZM65.3998 20.5499V17.6299H75.6198V20.7499H72.2498V29.2499H68.7498V20.7499H65.3998V20.5499ZM92.0798 29.0499V17.6299H95.6599L98.6098 21.8399L101.55 17.6299H105.15V29.2499H101.65V23.2L98.6998 27.2H98.4498L95.5098 23.2299V29.2499H92.0798V29.0499ZM79.0698 29.0499V17.6299H88.4699V20.6699H82.5398V21.9799H87.9099V24.8199H82.5398V26.2099H88.5498V29.2499H79.0698V29.0499ZM107.99 27.2599L109.84 25.0499L109.99 25.1699C110.54 25.5999 111.1 25.9299 111.69 26.1499C112.28 26.3599 112.88 26.4699 113.51 26.4699C113.71 26.4699 113.87 26.4499 114.01 26.4199C114.15 26.3899 114.26 26.3499 114.35 26.2899C114.43 26.2399 114.49 26.1799 114.53 26.1099C114.57 26.0399 114.59 25.9499 114.59 25.8599C114.59 25.6899 114.49 25.5499 114.3 25.4399C114.18 25.3699 114.01 25.2999 113.77 25.2199C113.53 25.1399 113.23 25.0599 112.86 24.9699L112.33 24.8399L111.87 24.7199C111.73 24.6899 111.58 24.6399 111.42 24.5899L110.96 24.4299C110.8 24.3699 110.65 24.3099 110.51 24.2499C110.37 24.1899 110.24 24.1299 110.13 24.0599C110.01 23.9899 109.89 23.9199 109.78 23.8399C109.68 23.7699 109.56 23.6799 109.45 23.5899C109.34 23.4899 109.24 23.3899 109.15 23.2899C109.06 23.1899 108.98 23.0799 108.91 22.9599C108.84 22.8499 108.78 22.7299 108.73 22.5999C108.67 22.4799 108.63 22.3399 108.59 22.1899C108.55 22.0399 108.51 21.8899 108.49 21.7299C108.47 21.5599 108.46 21.3999 108.46 21.2299C108.46 20.6699 108.57 20.1599 108.78 19.7099C108.99 19.2499 109.3 18.8399 109.71 18.4899C110.13 18.1399 110.61 17.88 111.17 17.7C111.71 17.53 112.33 17.4399 113.02 17.4399C113.96 17.4399 114.82 17.5699 115.61 17.8199C116.4 18.0799 117.12 18.4599 117.76 18.9699L117.9 19.0899L116.12 21.5899L115.96 21.4799C115.45 21.1199 114.94 20.8499 114.44 20.6799C113.94 20.4999 113.44 20.4099 112.94 20.4099C112.77 20.4099 112.63 20.4299 112.51 20.4599C112.39 20.4899 112.3 20.53 112.22 20.58C112.15 20.64 112.09 20.6899 112.06 20.7599C112.03 20.8199 112.01 20.8899 112.01 20.9699C112.01 21.0599 112.03 21.1399 112.08 21.2099C112.12 21.2899 112.2 21.3499 112.3 21.4099C112.41 21.4699 112.6 21.5499 112.85 21.6299C113.1 21.6999 113.42 21.7899 113.79 21.8699C114.13 21.9499 114.46 22.0299 114.75 22.1099C115.05 22.1899 115.32 22.2799 115.57 22.3799C115.82 22.4699 116.05 22.5699 116.27 22.6899C116.5 22.7999 116.71 22.9299 116.91 23.0699C117.11 23.2199 117.29 23.3799 117.45 23.5599C117.6 23.7299 117.73 23.93 117.83 24.14C117.93 24.35 118.01 24.5799 118.06 24.8199C118.11 25.0599 118.14 25.3199 118.14 25.5899C118.14 26.1799 118.03 26.7199 117.81 27.1899C117.59 27.6699 117.26 28.0799 116.82 28.4199C116.39 28.7599 115.89 29.0199 115.31 29.1899C114.74 29.3599 114.1 29.4399 113.4 29.4399C112.88 29.4399 112.38 29.3999 111.89 29.3199C111.4 29.2399 110.92 29.1199 110.45 28.9599C109.98 28.7899 109.55 28.5899 109.14 28.3599C108.73 28.1199 108.35 27.8399 108 27.5299L107.86 27.3999L107.99 27.2599Z" fill="#FEFEFE"/>
<path d="M82.1701 5.98999H89.9301V7.77002C89.9301 8.27002 89.8801 8.77997 89.7801 9.27997C89.6801 9.76997 89.5401 10.26 89.3401 10.73C89.1401 11.2 88.9001 11.65 88.6201 12.08C88.3401 12.5 88.0201 12.9 87.6601 13.26C86.9201 14 86.0601 14.56 85.1401 14.94C84.1901 15.33 83.1801 15.53 82.1701 15.53C81.1601 15.53 80.1501 15.33 79.2001 14.94C78.2801 14.56 77.4201 14 76.6801 13.26L76.6301 13.2C75.9101 12.47 75.3701 11.63 75.0001 10.74C74.6101 9.78999 74.4102 8.78002 74.4102 7.77002V7.57001H74.4201C74.4401 6.63001 74.6401 5.67998 75.0001 4.78998C75.3801 3.87998 75.9401 3.01997 76.6801 2.27997C77.4301 1.53997 78.2801 0.969976 79.2001 0.599976C80.1501 0.199976 81.1601 0 82.1701 0C83.1801 0 84.1901 0.199976 85.1401 0.599976C86.0601 0.969976 86.9201 1.53997 87.6601 2.27997L87.8001 2.41998L85.2901 4.92999L85.1501 4.78998C84.7401 4.38998 84.2801 4.08 83.7801 3.88C83.2701 3.66 82.7201 3.56 82.1701 3.56C81.6201 3.56 81.0701 3.66 80.5601 3.88C80.0601 4.08 79.6001 4.38998 79.1901 4.78998C78.7901 5.18998 78.4801 5.65997 78.2701 6.15997C78.0801 6.60997 77.9801 7.09001 77.9601 7.57001V7.77002C77.9601 8.32002 78.0601 8.87001 78.2801 9.39001C78.4601 9.82001 78.7201 10.24 79.0501 10.61L79.1901 10.75C79.6001 11.15 80.0601 11.45 80.5601 11.66C81.0701 11.87 81.6201 11.98 82.1701 11.98C82.7201 11.98 83.2701 11.87 83.7801 11.66C84.2801 11.45 84.7501 11.15 85.1501 10.75C85.3501 10.54 85.5301 10.33 85.6801 10.1C85.8001 9.91998 85.9101 9.72998 86.0001 9.53998H81.9801V5.98999H82.1701Z" fill="#FEFEFE"/>
<path fill-rule="evenodd" clip-rule="evenodd" d="M29.6104 23.1301H34.8704V17.8101H29.6104V23.1301Z" fill="#0099E9"/>
<path fill-rule="evenodd" clip-rule="evenodd" d="M28.9404 17.8101H23.6904V23.1301H28.9404V17.8101Z" fill="#0099E9"/>
<path fill-rule="evenodd" clip-rule="evenodd" d="M17.6904 5.28979H23.0205V0.0297852H17.6904V5.28979Z" fill="#0099E9"/>
<path fill-rule="evenodd" clip-rule="evenodd" d="M23.0205 5.9502H17.6904V11.2101H23.0205V5.9502Z" fill="#0099E9"/>
<path fill-rule="evenodd" clip-rule="evenodd" d="M46.7205 23.79H41.4404V29.05H46.7205V23.79Z" fill="#0099E9"/>
<path fill-rule="evenodd" clip-rule="evenodd" d="M47.3701 11.8901V17.1501H52.6801V11.8901H47.3701Z" fill="#0099E9"/>
<path fill-rule="evenodd" clip-rule="evenodd" d="M17.6904 34.97H23.0305V29.71H23.0205H17.6904V34.97Z" fill="#0F618E"/>
<path fill-rule="evenodd" clip-rule="evenodd" d="M11.1096 17.8101H5.84961V23.1301H11.1096V17.8101Z" fill="#0977B3"/>
<path fill-rule="evenodd" clip-rule="evenodd" d="M17.6904 29.05H23.0205V23.79H17.6904V29.05Z" fill="#0F618E"/>
<path fill-rule="evenodd" clip-rule="evenodd" d="M41.4404 34.98L46.7805 34.97V29.71H46.7205H41.4404V34.98Z" fill="#0099E9"/>
<path fill-rule="evenodd" clip-rule="evenodd" d="M28.9397 5.9502H28.9097H23.6897L23.6797 11.2101H28.9397V5.9502Z" fill="#0099E9"/>
<path fill-rule="evenodd" clip-rule="evenodd" d="M28.9397 17.1401L28.9497 11.8901H23.6797V17.1401H28.9397Z" fill="#0099E9"/>
<path fill-rule="evenodd" clip-rule="evenodd" d="M28.9097 5.28979V0.0297852H23.6897L23.6797 5.28979H23.6897H28.9097Z" fill="#0099E9"/>
<path fill-rule="evenodd" clip-rule="evenodd" d="M5.84961 34.97H11.1096V29.71H5.84961V34.97Z" fill="#0F618E"/>
<path fill-rule="evenodd" clip-rule="evenodd" d="M34.8704 17.1301V11.8901H29.6104V17.1301H34.8704Z" fill="#0099E9"/>
<path fill-rule="evenodd" clip-rule="evenodd" d="M29.5996 29.05H34.8696V23.79H29.6096L29.5996 29.05Z" fill="#0977B3"/>
<path fill-rule="evenodd" clip-rule="evenodd" d="M40.7895 29.05V23.79H35.5295L35.5195 29.05H40.7895Z" fill="#0977B3"/>
<path fill-rule="evenodd" clip-rule="evenodd" d="M5.84961 29.05H11.1096V23.79H5.84961V29.05Z" fill="#0977B3"/>
<path fill-rule="evenodd" clip-rule="evenodd" d="M23.6904 23.79V29.05H28.9504V23.79H23.6904Z" fill="#0977B3"/>
<path fill-rule="evenodd" clip-rule="evenodd" d="M11.7695 11.2101H17.0295V5.9502H11.7695V11.2101Z" fill="#0099E9"/>
<path fill-rule="evenodd" clip-rule="evenodd" d="M5.84961 11.2101H11.1096V5.9502H5.84961V11.2101Z" fill="#0977B3"/>
<path fill-rule="evenodd" clip-rule="evenodd" d="M11.1096 17.1301V11.8901H5.84961V17.1301H11.1096Z" fill="#0F618E"/>
<path fill-rule="evenodd" clip-rule="evenodd" d="M34.8704 29.71H34.8604H29.6104V34.97H34.8704V29.71Z" fill="#0977B3"/>
<path fill-rule="evenodd" clip-rule="evenodd" d="M17.0295 0.0297852H11.7695V5.28979H17.0295V0.0297852Z" fill="#0099E9"/>
<path fill-rule="evenodd" clip-rule="evenodd" d="M11.7695 29.05H17.0295V23.79H11.7695V29.05Z" fill="#0977B3"/>
<path fill-rule="evenodd" clip-rule="evenodd" d="M5.18878 17.8101H0.00878906V23.1301H5.18878V17.8101Z" fill="#0F618E"/>
<path fill-rule="evenodd" clip-rule="evenodd" d="M41.4905 11.2101H46.7405V5.9502H41.4805L41.4905 11.2101Z" fill="#0099E9"/>
<path fill-rule="evenodd" clip-rule="evenodd" d="M0 29.05H5.19V23.79H0V29.05Z" fill="#0F618E"/>
<path fill-rule="evenodd" clip-rule="evenodd" d="M0 17.1301H0.0100098V17.1401L5.19 17.1301V11.8901L0 11.9001V17.1301Z" fill="#0F618E"/>
<path fill-rule="evenodd" clip-rule="evenodd" d="M34.8304 5.9502H29.6104V11.2101H34.8304V5.9502Z" fill="#0099E9"/>
<path fill-rule="evenodd" clip-rule="evenodd" d="M35.5602 5.9502H35.5303V11.2101H40.8203V6.05017V5.9502H35.5602Z" fill="#0099E9"/>
<path fill-rule="evenodd" clip-rule="evenodd" d="M35.5596 0.0297852V5.28979H40.7796V0.0297852H35.5596Z" fill="#0099E9"/>
<path fill-rule="evenodd" clip-rule="evenodd" d="M29.6096 5.28979H34.8696V0.0297852H29.5996L29.6096 5.28979Z" fill="#0099E9"/>
<path fill-rule="evenodd" clip-rule="evenodd" d="M47.3799 23.09H52.6399V17.8301H47.3799V23.09Z" fill="#0099E9"/>
<path fill-rule="evenodd" clip-rule="evenodd" d="M47.4404 23.79V29.05H52.6404V23.79H47.4404Z" fill="#0099E9"/>
<path fill-rule="evenodd" clip-rule="evenodd" d="M101.21 11.1902V11.2202H95.9502V5.93018H101.11H101.21V11.1902Z" fill="#0099E9"/>
<path fill-rule="evenodd" clip-rule="evenodd" d="M95.9502 5.27002V0H101.21V5.27002H95.9502Z" fill="#0977B3"/>
<path fill-rule="evenodd" clip-rule="evenodd" d="M101.88 11.2297V5.96973H107.14V11.2297H101.88Z" fill="#0F618E"/>
<path fill-rule="evenodd" clip-rule="evenodd" d="M17.7598 17.1501H22.9498V11.8901L17.7598 11.9001V17.1501ZM41.5198 17.1501H46.6797V11.8901L41.5198 11.9001V17.1501Z" fill="#FEFEFE"/>
<path d="M66.4104 0.00976562C67.4604 0.00976562 68.4604 0.219722 69.3804 0.589722C70.3204 0.989722 71.1804 1.55972 71.9004 2.27972L72.0304 2.41974L69.5204 4.92975L69.3904 4.78973C68.6304 4.02973 67.5704 3.55975 66.4104 3.55975C65.8404 3.55975 65.2904 3.66975 64.8004 3.86975C64.2804 4.08975 63.8204 4.39973 63.4304 4.78973L63.3704 4.84973C62.6404 5.59973 62.2004 6.62978 62.2004 7.76978C62.2004 8.33978 62.3104 8.87976 62.5204 9.37976C62.7304 9.88976 63.0404 10.3598 63.4304 10.7498C63.8204 11.1398 64.2804 11.4497 64.8004 11.6597C65.2904 11.8697 65.8404 11.9797 66.4104 11.9797C66.9804 11.9797 67.5304 11.8697 68.0204 11.6597C68.5104 11.4597 68.9504 11.1698 69.3304 10.8098V10.7997L69.5204 10.6097L72.0304 13.1198L71.7604 13.3898H71.7504C71.0704 14.0398 70.2604 14.5698 69.3704 14.9398C68.4604 15.3198 67.4604 15.5297 66.4104 15.5297C65.3604 15.5297 64.3604 15.3198 63.4404 14.9398C62.4904 14.5498 61.6403 13.9698 60.9203 13.2598C60.2103 12.5398 59.6303 11.6897 59.2303 10.7397C58.8603 9.81975 58.6504 8.81978 58.6504 7.76978C58.6504 6.71978 58.8604 5.71974 59.2404 4.79974C59.6004 3.91974 60.1303 3.10974 60.7903 2.41974H60.7804L60.9203 2.27972C61.6303 1.56972 62.4904 0.989722 63.4404 0.589722C64.3504 0.219722 65.3604 0.00976562 66.4104 0.00976562Z" fill="#FEFEFE"/>
<path d="M58.5498 29.0499V17.6299H62.0498V29.2499H58.5498V29.0499ZM65.3998 20.5499V17.6299H75.6198V20.7499H72.2498V29.2499H68.7498V20.7499H65.3998V20.5499ZM92.0798 29.0499V17.6299H95.6599L98.6098 21.8399L101.55 17.6299H105.15V29.2499H101.65V23.2L98.6998 27.2H98.4498L95.5098 23.2299V29.2499H92.0798V29.0499ZM79.0698 29.0499V17.6299H88.4699V20.6699H82.5398V21.9799H87.9099V24.8199H82.5398V26.2099H88.5498V29.2499H79.0698V29.0499ZM107.99 27.2599L109.84 25.0499L109.99 25.1699C110.54 25.5999 111.1 25.9299 111.69 26.1499C112.28 26.3599 112.88 26.4699 113.51 26.4699C113.71 26.4699 113.87 26.4499 114.01 26.4199C114.15 26.3899 114.26 26.3499 114.35 26.2899C114.43 26.2399 114.49 26.1799 114.53 26.1099C114.57 26.0399 114.59 25.9499 114.59 25.8599C114.59 25.6899 114.49 25.5499 114.3 25.4399C114.18 25.3699 114.01 25.2999 113.77 25.2199C113.53 25.1399 113.23 25.0599 112.86 24.9699L112.33 24.8399L111.87 24.7199C111.73 24.6899 111.58 24.6399 111.42 24.5899L110.96 24.4299C110.8 24.3699 110.65 24.3099 110.51 24.2499C110.37 24.1899 110.24 24.1299 110.13 24.0599C110.01 23.9899 109.89 23.9199 109.78 23.8399C109.68 23.7699 109.56 23.6799 109.45 23.5899C109.34 23.4899 109.24 23.3899 109.15 23.2899C109.06 23.1899 108.98 23.0799 108.91 22.9599C108.84 22.8499 108.78 22.7299 108.73 22.5999C108.67 22.4799 108.63 22.3399 108.59 22.1899C108.55 22.0399 108.51 21.8899 108.49 21.7299C108.47 21.5599 108.46 21.3999 108.46 21.2299C108.46 20.6699 108.57 20.1599 108.78 19.7099C108.99 19.2499 109.3 18.8399 109.71 18.4899C110.13 18.1399 110.61 17.88 111.17 17.7C111.71 17.53 112.33 17.4399 113.02 17.4399C113.96 17.4399 114.82 17.5699 115.61 17.8199C116.4 18.0799 117.12 18.4599 117.76 18.9699L117.9 19.0899L116.12 21.5899L115.96 21.4799C115.45 21.1199 114.94 20.8499 114.44 20.6799C113.94 20.4999 113.44 20.4099 112.94 20.4099C112.77 20.4099 112.63 20.4299 112.51 20.4599C112.39 20.4899 112.3 20.53 112.22 20.58C112.15 20.64 112.09 20.6899 112.06 20.7599C112.03 20.8199 112.01 20.8899 112.01 20.9699C112.01 21.0599 112.03 21.1399 112.08 21.2099C112.12 21.2899 112.2 21.3499 112.3 21.4099C112.41 21.4699 112.6 21.5499 112.85 21.6299C113.1 21.6999 113.42 21.7899 113.79 21.8699C114.13 21.9499 114.46 22.0299 114.75 22.1099C115.05 22.1899 115.32 22.2799 115.57 22.3799C115.82 22.4699 116.05 22.5699 116.27 22.6899C116.5 22.7999 116.71 22.9299 116.91 23.0699C117.11 23.2199 117.29 23.3799 117.45 23.5599C117.6 23.7299 117.73 23.93 117.83 24.14C117.93 24.35 118.01 24.5799 118.06 24.8199C118.11 25.0599 118.14 25.3199 118.14 25.5899C118.14 26.1799 118.03 26.7199 117.81 27.1899C117.59 27.6699 117.26 28.0799 116.82 28.4199C116.39 28.7599 115.89 29.0199 115.31 29.1899C114.74 29.3599 114.1 29.4399 113.4 29.4399C112.88 29.4399 112.38 29.3999 111.89 29.3199C111.4 29.2399 110.92 29.1199 110.45 28.9599C109.98 28.7899 109.55 28.5899 109.14 28.3599C108.73 28.1199 108.35 27.8399 108 27.5299L107.86 27.3999L107.99 27.2599Z" fill="#FEFEFE"/>
<path d="M82.1701 5.98999H89.9301V7.77002C89.9301 8.27002 89.8801 8.77997 89.7801 9.27997C89.6801 9.76997 89.5401 10.26 89.3401 10.73C89.1401 11.2 88.9001 11.65 88.6201 12.08C88.3401 12.5 88.0201 12.9 87.6601 13.26C86.9201 14 86.0601 14.56 85.1401 14.94C84.1901 15.33 83.1801 15.53 82.1701 15.53C81.1601 15.53 80.1501 15.33 79.2001 14.94C78.2801 14.56 77.4201 14 76.6801 13.26L76.6301 13.2C75.9101 12.47 75.3701 11.63 75.0001 10.74C74.6101 9.78999 74.4102 8.78002 74.4102 7.77002V7.57001H74.4201C74.4401 6.63001 74.6401 5.67998 75.0001 4.78998C75.3801 3.87998 75.9401 3.01997 76.6801 2.27997C77.4301 1.53997 78.2801 0.969976 79.2001 0.599976C80.1501 0.199976 81.1601 0 82.1701 0C83.1801 0 84.1901 0.199976 85.1401 0.599976C86.0601 0.969976 86.9201 1.53997 87.6601 2.27997L87.8001 2.41998L85.2901 4.92999L85.1501 4.78998C84.7401 4.38998 84.2801 4.08 83.7801 3.88C83.2701 3.66 82.7201 3.56 82.1701 3.56C81.6201 3.56 81.0701 3.66 80.5601 3.88C80.0601 4.08 79.6001 4.38998 79.1901 4.78998C78.7901 5.18998 78.4801 5.65997 78.2701 6.15997C78.0801 6.60997 77.9801 7.09001 77.9601 7.57001V7.77002C77.9601 8.32002 78.0601 8.87001 78.2801 9.39001C78.4601 9.82001 78.7201 10.24 79.0501 10.61L79.1901 10.75C79.6001 11.15 80.0601 11.45 80.5601 11.66C81.0701 11.87 81.6201 11.98 82.1701 11.98C82.7201 11.98 83.2701 11.87 83.7801 11.66C84.2801 11.45 84.7501 11.15 85.1501 10.75C85.3501 10.54 85.5301 10.33 85.6801 10.1C85.8001 9.91998 85.9101 9.72998 86.0001 9.53998H81.9801V5.98999H82.1701Z" fill="#FEFEFE"/>
</svg>
