<svg width="59" height="46" viewBox="0 0 59 46" fill="none" xmlns="http://www.w3.org/2000/svg">
<path fill-rule="evenodd" clip-rule="evenodd" d="M4.33611 6.1757H16.6255V3.79453C16.6255 1.73149 18.2862 0.0444336 20.317 0.0444336H38.6609C40.6918 0.0444336 42.3525 1.73149 42.3525 3.79453V6.1757H54.642C56.6728 6.1757 58.3334 7.86276 58.3334 9.9258V42.2499C58.3334 44.3129 56.6728 46 54.642 46H4.33611C2.30527 46 0.644531 44.3129 0.644531 42.2499V9.9258C0.644531 7.86276 2.30527 6.1757 4.33611 6.1757ZM29.4938 12.2973C33.2233 12.2973 36.6207 13.8398 39.0785 16.3366L39.088 16.3463C41.5459 18.8431 43.0642 22.2847 43.0642 26.083C43.0642 29.891 41.5459 33.3422 39.088 35.8294C36.6302 38.3263 33.2423 39.8687 29.4938 39.8687C25.7453 39.8687 22.3573 38.3263 19.8994 35.8294H19.89C17.4416 33.3326 15.9137 29.8813 15.9137 26.083C15.9137 22.2751 17.4416 18.8238 19.89 16.3366C22.3479 13.8398 25.7453 12.2973 29.4938 12.2973ZM35.9563 19.5083C34.3051 17.8309 32.0181 16.7994 29.4938 16.7994C26.9695 16.7994 24.6824 17.8405 23.0216 19.5179C21.3704 21.1954 20.3455 23.5187 20.3455 26.083C20.3455 28.657 21.3704 30.9803 23.0216 32.6577C24.6729 34.3352 26.96 35.3763 29.4938 35.3763C32.0181 35.3763 34.3051 34.3352 35.9563 32.6481C37.6076 30.9707 38.6325 28.6474 38.6325 26.083C38.6325 23.5187 37.6076 21.1954 35.9658 19.5179L35.9563 19.5083ZM8.30281 16.7319C6.79392 16.7319 5.56972 15.4883 5.56972 13.9651C5.56972 12.4323 6.79392 11.1887 8.30281 11.1887C9.80221 11.1887 11.0264 12.4323 11.0264 13.9651C11.0264 15.4883 9.80221 16.7319 8.30281 16.7319Z" fill="#68788F"/>
</svg>
