<svg width="21" height="21" viewBox="0 0 21 21" fill="none" xmlns="http://www.w3.org/2000/svg">
<path d="M0.683594 18.6953C0.683594 19.5996 1.4167 20.3327 2.32102 20.3327H18.6953C19.5996 20.3327 20.3327 19.5996 20.3327 18.6953C20.3327 17.791 19.5996 17.0579 18.6953 17.0579H2.32102C1.4167 17.0579 0.683594 17.791 0.683594 18.6953ZM0.683594 10.5082C0.683594 11.4125 1.4167 12.1456 2.32102 12.1456H18.6953C19.5996 12.1456 20.3327 11.4125 20.3327 10.5082C20.3327 9.60383 19.5996 8.87073 18.6953 8.87073H2.32102C1.4167 8.87073 0.683594 9.60383 0.683594 10.5082ZM2.32102 0.683594C1.4167 0.683594 0.683594 1.41669 0.683594 2.32102C0.683594 3.22535 1.4167 3.95845 2.32102 3.95845H18.6953C19.5996 3.95845 20.3327 3.22535 20.3327 2.32102C20.3327 1.41669 19.5996 0.683594 18.6953 0.683594H2.32102Z" fill="white"/>
</svg>
