<svg width="17" height="13" viewBox="0 0 17 13" fill="none" xmlns="http://www.w3.org/2000/svg">
<path d="M13.9867 3.04184H15.3799C15.8335 3.04184 16.2332 3.23057 16.5248 3.53031C16.8164 3.83005 17 4.25191 17 4.70708V11.3348C17 11.7899 16.8164 12.2118 16.5248 12.5115C16.2332 12.8113 15.8335 13 15.3799 13H4.6334C4.19058 13 3.78016 12.8113 3.48855 12.5115C3.19693 12.2118 3.01332 11.7899 3.01332 11.3348V9.94705H1.59846C1.16643 9.94705 0.756039 9.76943 0.475225 9.46969C0.172811 9.16995 0 8.74806 0 8.304V1.64302C0 1.19895 0.1728 0.777106 0.464414 0.477362C0.756028 0.177618 1.16643 0 1.59846 0H12.3773C12.8202 0 13.2198 0.177618 13.5115 0.477362C13.8031 0.777106 13.9867 1.19895 13.9867 1.64302V3.04184ZM3.01332 8.83689H12.3773C12.5286 8.83689 12.6582 8.78136 12.7554 8.68145C12.8418 8.58154 12.9066 8.44832 12.9066 8.304V3.04184V1.64302C12.9066 1.4987 12.8418 1.36548 12.7554 1.26557C12.6582 1.16565 12.5286 1.09905 12.3773 1.09905H1.59846C1.45805 1.09905 1.32848 1.16565 1.23127 1.26557C1.13407 1.36548 1.08005 1.4987 1.08005 1.64302V8.304C1.08005 8.44832 1.13407 8.58154 1.23127 8.68145C1.32848 8.78136 1.45805 8.83689 1.59846 8.83689H3.01332ZM15.3799 4.152H13.9867V8.304C13.9867 8.74806 13.8031 9.16995 13.5115 9.46969C13.2198 9.75833 12.8202 9.94705 12.3773 9.94705H4.09337V11.3348C4.09337 11.4902 4.15819 11.6234 4.24459 11.7233C4.3418 11.8232 4.48219 11.8898 4.6334 11.8898H15.3799C15.5311 11.8898 15.6715 11.8232 15.7687 11.7233C15.8659 11.6234 15.9199 11.4902 15.9199 11.3348V4.70708C15.9199 4.55166 15.8659 4.41843 15.7687 4.31852C15.6715 4.2186 15.5311 4.152 15.3799 4.152Z" fill="white"/>
</svg>
