<svg width="73" height="15" viewBox="0 0 73 15" fill="none" xmlns="http://www.w3.org/2000/svg">
<path fill-rule="evenodd" clip-rule="evenodd" d="M7.84125 14.87H72.5875V14.86C70.8018 14.76 69.1978 14 68.0175 12.82C66.7464 11.55 65.9595 9.81001 65.9595 7.89001C65.9595 5.97001 66.7464 4.22001 68.0175 2.95001C69.1474 1.83001 70.6606 1.07999 72.3353 0.929993L72.5875 0.909973V0.900024H7.85135H7.63947L7.53855 0.909973L7.28635 0.929993C5.62179 1.07999 4.1086 1.83001 2.97872 2.95001C1.7076 4.22001 0.910645 5.97001 0.910645 7.89001C0.910645 9.81001 1.7076 11.55 2.97872 12.82C4.21957 14.07 5.94466 14.85 7.84125 14.87Z" fill="white"/>
</svg>
