<svg width="30" height="38" viewBox="0 0 30 38" fill="none" xmlns="http://www.w3.org/2000/svg">
<path fill-rule="evenodd" clip-rule="evenodd" d="M6 15.2002H12V22.8002H6V15.2002Z" fill="#0A5177"/>
<path fill-rule="evenodd" clip-rule="evenodd" d="M12 7.59961H18V15.1996H12V7.59961Z" fill="#0A5177"/>
<path fill-rule="evenodd" clip-rule="evenodd" d="M12 15.2002H18V22.8002H12V15.2002Z" fill="#0A5177"/>
<path fill-rule="evenodd" clip-rule="evenodd" d="M12 22.7998H18V30.3998H12V22.7998Z" fill="#0A5177"/>
<path fill-rule="evenodd" clip-rule="evenodd" d="M6 7.59961H12V15.1996H6V7.59961Z" fill="#076596"/>
<path fill-rule="evenodd" clip-rule="evenodd" d="M6 22.7998H12V30.3998H6V22.7998Z" fill="#076596"/>
<path fill-rule="evenodd" clip-rule="evenodd" d="M18 0H24V7.6H18V0Z" fill="#0A5177"/>
<path fill-rule="evenodd" clip-rule="evenodd" d="M18 7.59961H24V15.1996H18V7.59961Z" fill="#0D3E58"/>
<path fill-rule="evenodd" clip-rule="evenodd" d="M18 22.7998H24V30.3998H18V22.7998Z" fill="#0D3E58"/>
<path fill-rule="evenodd" clip-rule="evenodd" d="M18 30.4004H24V38.0004H18V30.4004Z" fill="#0A5177"/>
<path fill-rule="evenodd" clip-rule="evenodd" d="M24 0H30V7.6H24V0Z" fill="#0D3E58"/>
<path fill-rule="evenodd" clip-rule="evenodd" d="M24 30.4004H30V38.0004H24V30.4004Z" fill="#0D3E58"/>
<path fill-rule="evenodd" clip-rule="evenodd" d="M0 15.2002H5.99996V22.8002H0V15.2002Z" fill="#076596"/>
<path fill-rule="evenodd" clip-rule="evenodd" d="M12 0H18V7.6H12V0Z" fill="#076596"/>
<path fill-rule="evenodd" clip-rule="evenodd" d="M12 30.4004H18V38.0004H12V30.4004Z" fill="#076596"/>
<path fill-rule="evenodd" clip-rule="evenodd" d="M0 7.59961H5.99996V15.1996H0V7.59961Z" fill="#0572AB"/>
<path fill-rule="evenodd" clip-rule="evenodd" d="M6 0H12V7.6H6V0Z" fill="#0572AB"/>
<path fill-rule="evenodd" clip-rule="evenodd" d="M0 0H5.99996V7.6H0V0Z" fill="#0572AB"/>
<path fill-rule="evenodd" clip-rule="evenodd" d="M6 30.4004H12V38.0004H6V30.4004Z" fill="#0572AB"/>
<path fill-rule="evenodd" clip-rule="evenodd" d="M0 30.4004H5.99996V38.0004H0V30.4004Z" fill="#0572AB"/>
<path fill-rule="evenodd" clip-rule="evenodd" d="M0 22.7998H5.99996V30.3998H0V22.7998Z" fill="#0572AB"/>
</svg>
