<svg width="498" height="427" viewBox="0 0 498 427" fill="none" xmlns="http://www.w3.org/2000/svg">
<path fill-rule="evenodd" clip-rule="evenodd" d="M71.4277 142.189H0.332619V213.285H71.4277V142.189Z" fill="#0D59BD" fill-opacity="0.35"/>
<path fill-rule="evenodd" clip-rule="evenodd" d="M142.523 142.189H71.4283V213.285H142.523V142.189Z" fill="#0D59BD" fill-opacity="0.35"/>
<path fill-rule="evenodd" clip-rule="evenodd" d="M284.715 284.379H213.62V355.474H284.715V284.379Z" fill="#0D59BD" fill-opacity="0.35"/>
<path fill-rule="evenodd" clip-rule="evenodd" d="M355.809 284.379H284.713V355.474H355.809V284.379Z" fill="#0D59BD" fill-opacity="0.35"/>
<path fill-rule="evenodd" clip-rule="evenodd" d="M355.809 355.477H284.713V426.572H355.809V355.477Z" fill="#0D59BD" fill-opacity="0.35"/>
<path fill-rule="evenodd" clip-rule="evenodd" d="M71.4277 213.287H0.332619V284.382H71.4277V213.287Z" fill="#0D59BD" fill-opacity="0.7"/>
<path fill-rule="evenodd" clip-rule="evenodd" d="M142.523 213.287H71.4283V284.382H142.523V213.287Z" fill="#0D59BD" fill-opacity="0.55"/>
<path fill-rule="evenodd" clip-rule="evenodd" d="M71.4277 284.379H0.332619V355.474H71.4277V284.379Z" fill="#0D59BD" fill-opacity="0.55"/>
<path fill-rule="evenodd" clip-rule="evenodd" d="M142.523 284.379H71.4283V355.474H142.523V284.379Z" fill="#0D59BD" fill-opacity="0.35"/>
<path fill-rule="evenodd" clip-rule="evenodd" d="M213.619 284.379H142.524V355.474H213.619V284.379Z" fill="#0D59BD" fill-opacity="0.2"/>
<path fill-rule="evenodd" clip-rule="evenodd" d="M213.619 213.287H142.524V284.382H213.619V213.287Z" fill="#0D59BD" fill-opacity="0.2"/>
<path fill-rule="evenodd" clip-rule="evenodd" d="M284.715 213.287H213.62V284.382H284.715V213.287Z" fill="#0D59BD" fill-opacity="0.2"/>
<path fill-rule="evenodd" clip-rule="evenodd" d="M426.906 284.381H355.811V355.476H426.906V284.381Z" fill="#0D59BD" fill-opacity="0.2"/>
<path fill-rule="evenodd" clip-rule="evenodd" d="M426.906 355.477H355.811V426.572H426.906V355.477Z" fill="#0D59BD" fill-opacity="0.2"/>
<path fill-rule="evenodd" clip-rule="evenodd" d="M498 355.477H426.905V426.572H498V355.477Z" fill="#0D59BD" fill-opacity="0.2"/>
<path fill-rule="evenodd" clip-rule="evenodd" d="M213.619 142.189H142.524V213.285H213.619V142.189Z" fill="#0D59BD" fill-opacity="0.2"/>
<path fill-rule="evenodd" clip-rule="evenodd" d="M142.523 71.0957H71.4283V142.191H142.523V71.0957Z" fill="#0D59BD" fill-opacity="0.2"/>
<path fill-rule="evenodd" clip-rule="evenodd" d="M72.9414 0H1.84629V71.0952H72.9414V0Z" fill="#0D59BD" fill-opacity="0.2"/>
<path fill-rule="evenodd" clip-rule="evenodd" d="M71.4277 71.0957H0.332619V142.191H71.4277V71.0957Z" fill="#0D59BD" fill-opacity="0.2"/>
<path fill-rule="evenodd" clip-rule="evenodd" d="M71.4277 355.477H0.332619V426.572H71.4277V355.477Z" fill="#0D59BD" fill-opacity="0.7"/>
<path fill-rule="evenodd" clip-rule="evenodd" d="M142.523 355.477H71.4283V426.572H142.523V355.477Z" fill="#0D59BD" fill-opacity="0.55"/>
<path fill-rule="evenodd" clip-rule="evenodd" d="M284.715 355.477H213.62V426.572H284.715V355.477Z" fill="#0D59BD" fill-opacity="0.55"/>
<path fill-rule="evenodd" clip-rule="evenodd" d="M213.619 355.477H142.524V426.572H213.619V355.477Z" fill="#0D59BD" fill-opacity="0.35"/>
</svg>
