<svg width="108" height="124" viewBox="0 0 108 124" fill="none" xmlns="http://www.w3.org/2000/svg">
<path fill-rule="evenodd" clip-rule="evenodd" d="M53.9309 1.06445L80.4004 16.3386L106.87 31.6128V62.1712V92.7196L80.4004 108.004L53.9309 123.278L27.4714 108.004L1.00195 92.7196V62.1712V31.6128L27.4714 16.3386L53.9309 1.06445Z" fill="#00CCFF" stroke="white" stroke-miterlimit="22.9256" stroke-linecap="round" stroke-linejoin="round"/>
<path d="M106.868 31.585L53.9336 1L0.999664 31.585L53.9336 62.17L106.868 31.585Z" fill="#5CDEFF" stroke="white" stroke-width="0.709403" stroke-miterlimit="22.9256" stroke-linecap="round" stroke-linejoin="round"/>
<path d="M106.868 92.7549L53.9336 62.1699L0.999664 92.7549L53.9336 123.34L106.868 92.7549Z" fill="#00CCFF" stroke="white" stroke-width="0.709403" stroke-miterlimit="22.9256" stroke-linecap="round" stroke-linejoin="round"/>
<path fill-rule="evenodd" clip-rule="evenodd" d="M53.9309 62.1716V123.278L1.00195 92.72V31.6133L53.9309 62.1716Z" fill="#00CCFF" stroke="white" stroke-miterlimit="22.9256" stroke-linecap="round" stroke-linejoin="round"/>
<path fill-rule="evenodd" clip-rule="evenodd" d="M53.9316 62.1716V123.278L106.871 92.72V31.6133L53.9316 62.1716Z" fill="#00A7D1" stroke="white" stroke-miterlimit="22.9256" stroke-linecap="round" stroke-linejoin="round"/>
</svg>
