<svg width="108" height="124" viewBox="0 0 108 124" fill="none" xmlns="http://www.w3.org/2000/svg">
<path fill-rule="evenodd" clip-rule="evenodd" d="M53.9347 61.3594L106.87 91.9643L53.9347 122.559L1.00977 91.9643L53.9347 61.3594Z" fill="#00CCFF" fill-opacity="0.8"/>
<path fill-rule="evenodd" clip-rule="evenodd" d="M53.9347 61.3594L106.87 91.9643L53.9347 122.559L1.00977 91.9643L53.9347 61.3594Z" stroke="white" stroke-miterlimit="22.9256" stroke-linecap="round" stroke-linejoin="round"/>
<path fill-rule="evenodd" clip-rule="evenodd" d="M53.9347 1L106.87 31.6049L53.9347 62.1998L1.00977 31.6049L53.9347 1Z" fill="#00CCFF" fill-opacity="0.8"/>
<path fill-rule="evenodd" clip-rule="evenodd" d="M53.9347 1L106.87 31.6049L53.9347 62.1998L1.00977 31.6049L53.9347 1Z" stroke="white" stroke-miterlimit="22.9256" stroke-linecap="round" stroke-linejoin="round"/>
<path fill-rule="evenodd" clip-rule="evenodd" d="M53.935 62.1997V123.34L1 92.7746V31.6348L53.935 62.1997Z" fill="#00CCFF" fill-opacity="0.8"/>
<path fill-rule="evenodd" clip-rule="evenodd" d="M53.935 62.1997V123.34L1 92.7746V31.6348L53.935 62.1997Z" stroke="white" stroke-miterlimit="22.9256" stroke-linecap="round" stroke-linejoin="round"/>
<path fill-rule="evenodd" clip-rule="evenodd" d="M53.9355 62.1997V123.34L106.871 92.7746V31.6348L53.9355 62.1997Z" fill="#00CCFF" fill-opacity="0.8"/>
<path fill-rule="evenodd" clip-rule="evenodd" d="M53.9355 62.1997V123.34L106.871 92.7746V31.6348L53.9355 62.1997Z" stroke="white" stroke-miterlimit="22.9256" stroke-linecap="round" stroke-linejoin="round"/>
</svg>
