<svg width="121" height="80" viewBox="0 0 121 80" fill="none" xmlns="http://www.w3.org/2000/svg">
<path fill-rule="evenodd" clip-rule="evenodd" d="M100.833 0H121V20.0049H100.833V0Z" fill="#13557C"/>
<path fill-rule="evenodd" clip-rule="evenodd" d="M100.833 20.0049H121V39.9998H100.833V20.0049Z" fill="#0F618E"/>
<path fill-rule="evenodd" clip-rule="evenodd" d="M100.833 39.9998H121V59.9947H100.833V39.9998Z" fill="#13557C"/>
<path fill-rule="evenodd" clip-rule="evenodd" d="M100.833 59.9951H121V80H100.833V59.9951Z" fill="#0F618E"/>
<path fill-rule="evenodd" clip-rule="evenodd" d="M80.6665 0H100.833V20.0049H80.6665V0Z" fill="#164A6A"/>
<path fill-rule="evenodd" clip-rule="evenodd" d="M80.6665 20.0049H100.833V39.9998H80.6665V20.0049Z" fill="#13557C"/>
<path fill-rule="evenodd" clip-rule="evenodd" d="M80.6665 39.9998H100.833V59.9947H80.6665V39.9998Z" fill="#164A6A"/>
<path fill-rule="evenodd" clip-rule="evenodd" d="M80.6665 59.9951H100.833V80H80.6665V59.9951Z" fill="#13557C"/>
<path fill-rule="evenodd" clip-rule="evenodd" d="M60.5 0H80.6669V20.0049H60.5V0Z" fill="#193E57"/>
<path fill-rule="evenodd" clip-rule="evenodd" d="M60.5 20.0049H80.6669V39.9998H60.5V20.0049Z" fill="#164A6A"/>
<path fill-rule="evenodd" clip-rule="evenodd" d="M60.5 39.9998H80.6669V59.9947H60.5V39.9998Z" fill="#193E57"/>
<path fill-rule="evenodd" clip-rule="evenodd" d="M60.5 59.9951H80.6669V80H60.5V59.9951Z" fill="#164A6A"/>
<path fill-rule="evenodd" clip-rule="evenodd" d="M40.333 20.0049H60.4997V39.9998H40.333V20.0049Z" fill="#193E57"/>
<path fill-rule="evenodd" clip-rule="evenodd" d="M40.333 39.9998H60.4997V59.9947H40.333V39.9998Z" fill="#1C3345"/>
<path fill-rule="evenodd" clip-rule="evenodd" d="M40.333 59.9951H60.4997V80H40.333V59.9951Z" fill="#193E57"/>
<path fill-rule="evenodd" clip-rule="evenodd" d="M20.1665 39.9998H40.3332V59.9947H20.1665V39.9998Z" fill="#1C3345"/>
<path fill-rule="evenodd" clip-rule="evenodd" d="M20.1665 59.9951H40.3332V80H20.1665V59.9951Z" fill="#1C3345"/>
<path fill-rule="evenodd" clip-rule="evenodd" d="M0 59.9951H20.1665V80H0V59.9951Z" fill="#1C3345"/>
</svg>
